<svg xmlns="http://www.w3.org/2000/svg" viewBox="0 0 1200 800" font-family="'Segoe UI', 'PingFang SC', 'Microsoft YaHei', sans-serif">
  <defs>
    <linearGradient id="sidebarBg" x1="0" y1="0" x2="1" y2="0">
      <stop offset="0%" stop-color="#f7f8fa"/>
      <stop offset="100%" stop-color="#ffffff"/>
    </linearGradient>
    <linearGradient id="primaryBtn" x1="0" y1="0" x2="1" y2="1">
      <stop offset="0%" stop-color="#3b82f6"/>
      <stop offset="100%" stop-color="#2563eb"/>
    </linearGradient>
  </defs>

  <!-- 窗口外框 -->
  <rect x="0" y="0" width="1200" height="800" rx="8" fill="#ffffff" stroke="#d8dce6" stroke-width="1"/>

  <!-- 标题栏 -->
  <rect x="0" y="0" width="1200" height="40" rx="8" fill="#ffffff"/>
  <rect x="0" y="20" width="1200" height="20" fill="#ffffff"/>
  <line x1="0" y1="40" x2="1200" y2="40" stroke="#e8eaef" stroke-width="1"/>
  <circle cx="20" cy="20" r="6" fill="#ff5f57"/>
  <circle cx="40" cy="20" r="6" fill="#febc2e"/>
  <circle cx="60" cy="20" r="6" fill="#28c840"/>
  <rect x="80" y="9" width="22" height="22" rx="5" fill="url(#primaryBtn)"/>
  <text x="85" y="24" font-size="11" fill="#ffffff" font-weight="bold">DT</text>
  <text x="112" y="25" font-size="14" fill="#1e293b" font-weight="600">DevToolkit</text>
  <text x="200" y="25" font-size="11" fill="#94a3b8">v1.0.0</text>
  <text x="1134" y="25" font-size="14" fill="#94a3b8">-</text>
  <rect x="1156" y="12" width="10" height="10" fill="none" stroke="#94a3b8" stroke-width="1.2" rx="1"/>
  <text x="1178" y="26" font-size="16" fill="#94a3b8">x</text>

  <!-- 侧边栏 -->
  <rect x="0" y="40" width="240" height="760" fill="url(#sidebarBg)"/>
  <line x1="240" y1="40" x2="240" y2="800" stroke="#e8eaef" stroke-width="1"/>
  <rect x="222" y="48" width="14" height="14" rx="3" fill="#f1f5f9" stroke="#d0d5dd" stroke-width="1"/>
  <text x="224" y="59" font-size="9" fill="#64748b">&lt;</text>

  <!-- 侧边栏 首页选中态 -->
  <rect x="8" y="52" width="224" height="34" rx="6" fill="#eff6ff"/>
  <rect x="8" y="52" width="3" height="34" rx="1" fill="#3b82f6"/>
  <text x="24" y="74" font-size="12" fill="#2563eb" font-weight="500">首页</text>

  <text x="16" y="112" font-size="11" fill="#94a3b8" font-weight="600" letter-spacing="0.5">字符编码</text>
  <rect x="8" y="120" width="224" height="32" rx="6" fill="transparent"/>
  <text x="24" y="140" font-size="12" fill="#475569">Hex 转换</text>
  <rect x="8" y="154" width="224" height="32" rx="6" fill="transparent"/>
  <text x="24" y="174" font-size="12" fill="#475569">Base64 编解码</text>
  <rect x="8" y="188" width="224" height="32" rx="6" fill="transparent"/>
  <text x="24" y="208" font-size="12" fill="#475569">ASCII 转换</text>
  <rect x="8" y="222" width="224" height="32" rx="6" fill="transparent"/>
  <text x="24" y="242" font-size="12" fill="#475569">URL 编解码</text>
  <rect x="8" y="256" width="224" height="32" rx="6" fill="transparent"/>
  <text x="24" y="276" font-size="12" fill="#475569">Unicode 编解码</text>

  <text x="16" y="312" font-size="11" fill="#94a3b8" font-weight="600" letter-spacing="0.5">JSON 工具</text>
  <rect x="8" y="320" width="224" height="32" rx="6" fill="transparent"/>
  <text x="24" y="340" font-size="12" fill="#475569">Pretty 格式化</text>
  <rect x="8" y="354" width="224" height="32" rx="6" fill="transparent"/>
  <text x="24" y="374" font-size="12" fill="#475569">JSON 压缩</text>
  <rect x="8" y="388" width="224" height="32" rx="6" fill="transparent"/>
  <text x="24" y="408" font-size="12" fill="#475569">反序列化</text>
  <rect x="8" y="422" width="224" height="32" rx="6" fill="transparent"/>
  <text x="24" y="442" font-size="12" fill="#475569">JSONPath 查询</text>

  <text x="16" y="478" font-size="11" fill="#94a3b8" font-weight="600" letter-spacing="0.5">加密解密</text>
  <rect x="8" y="486" width="224" height="32" rx="6" fill="transparent"/>
  <text x="24" y="506" font-size="12" fill="#475569">AES 加密/解密</text>
  <rect x="8" y="522" width="224" height="32" rx="6" fill="transparent"/>
  <text x="24" y="542" font-size="12" fill="#475569">DES / 3DES</text>
  <rect x="8" y="556" width="224" height="32" rx="6" fill="transparent"/>
  <text x="24" y="576" font-size="12" fill="#475569">RSA 工具</text>
  <rect x="8" y="590" width="224" height="32" rx="6" fill="transparent"/>
  <text x="24" y="610" font-size="12" fill="#475569">哈希摘要</text>
  <rect x="8" y="624" width="224" height="32" rx="6" fill="transparent"/>
  <text x="24" y="644" font-size="12" fill="#475569">密钥工具</text>

  <text x="16" y="680" font-size="11" fill="#94a3b8" font-weight="600" letter-spacing="0.5">数字计算</text>
  <rect x="8" y="688" width="224" height="32" rx="6" fill="transparent"/>
  <text x="24" y="708" font-size="12" fill="#475569">进制转换</text>
  <rect x="8" y="722" width="224" height="32" rx="6" fill="transparent"/>
  <text x="24" y="742" font-size="12" fill="#475569">公式求值</text>
  <rect x="8" y="756" width="224" height="32" rx="6" fill="transparent"/>
  <text x="24" y="776" font-size="12" fill="#475569">取模 / 整除</text>

  <!-- ========== 内容区: 首页工具总览 ========== -->
  <rect x="240" y="40" width="960" height="760" fill="#ffffff"/>

  <!-- 顶部搜索栏 -->
  <rect x="272" y="56" width="900" height="44" rx="8" fill="#f8fafc" stroke="#e2e8f0" stroke-width="1"/>
  <text x="296" y="83" font-size="14" fill="#94a3b8">搜索工具名称或关键词...  Ctrl+K</text>

  <!-- 字符编码 分类 -->
  <text x="272" y="132" font-size="14" fill="#1e293b" font-weight="600">字符编码</text>
  <line x1="272" y1="140" x2="1172" y2="140" stroke="#f1f5f9" stroke-width="1"/>

  <!-- 卡片行1 -->
  <rect x="272" y="150" width="130" height="80" rx="8" fill="#f8fafc" stroke="#e2e8f0" stroke-width="1"/>
  <text x="300" y="182" font-size="11" fill="#3b82f6" font-weight="600">Hex</text>
  <text x="300" y="198" font-size="10" fill="#94a3b8">字符串与Hex互转</text>

  <rect x="416" y="150" width="130" height="80" rx="8" fill="#f8fafc" stroke="#e2e8f0" stroke-width="1"/>
  <text x="440" y="182" font-size="11" fill="#3b82f6" font-weight="600">Base64</text>
  <text x="440" y="198" font-size="10" fill="#94a3b8">Base64编解码</text>

  <rect x="560" y="150" width="130" height="80" rx="8" fill="#f8fafc" stroke="#e2e8f0" stroke-width="1"/>
  <text x="588" y="182" font-size="11" fill="#3b82f6" font-weight="600">ASCII</text>
  <text x="588" y="198" font-size="10" fill="#94a3b8">ASCII码与字符互转</text>

  <rect x="704" y="150" width="130" height="80" rx="8" fill="#f8fafc" stroke="#e2e8f0" stroke-width="1"/>
  <text x="728" y="182" font-size="11" fill="#3b82f6" font-weight="600">URL</text>
  <text x="728" y="198" font-size="10" fill="#94a3b8">URL编解码</text>

  <rect x="848" y="150" width="130" height="80" rx="8" fill="#f8fafc" stroke="#e2e8f0" stroke-width="1"/>
  <text x="872" y="182" font-size="11" fill="#3b82f6" font-weight="600">Unicode</text>
  <text x="872" y="198" font-size="10" fill="#94a3b8">Unicode编解码</text>

  <!-- JSON 工具 分类 -->
  <text x="272" y="264" font-size="14" fill="#1e293b" font-weight="600">JSON 工具</text>
  <line x1="272" y1="272" x2="1172" y2="272" stroke="#f1f5f9" stroke-width="1"/>

  <rect x="272" y="282" width="130" height="80" rx="8" fill="#f8fafc" stroke="#e2e8f0" stroke-width="1"/>
  <text x="296" y="314" font-size="11" fill="#3b82f6" font-weight="600">Pretty</text>
  <text x="296" y="330" font-size="10" fill="#94a3b8">JSON美化格式化</text>

  <rect x="416" y="282" width="130" height="80" rx="8" fill="#f8fafc" stroke="#e2e8f0" stroke-width="1"/>
  <text x="440" y="314" font-size="11" fill="#3b82f6" font-weight="600">压缩</text>
  <text x="440" y="330" font-size="10" fill="#94a3b8">JSON紧凑输出</text>

  <rect x="560" y="282" width="130" height="80" rx="8" fill="#f8fafc" stroke="#e2e8f0" stroke-width="1"/>
  <text x="580" y="314" font-size="11" fill="#3b82f6" font-weight="600">反序列化</text>
  <text x="580" y="330" font-size="10" fill="#94a3b8">JSON转Map展示</text>

  <rect x="704" y="282" width="130" height="80" rx="8" fill="#f8fafc" stroke="#e2e8f0" stroke-width="1"/>
  <text x="724" y="314" font-size="11" fill="#3b82f6" font-weight="600">JSONPath</text>
  <text x="724" y="330" font-size="10" fill="#94a3b8">路径表达式查询</text>

  <rect x="848" y="282" width="130" height="80" rx="8" fill="#f8fafc" stroke="#e2e8f0" stroke-width="1"/>
  <text x="872" y="314" font-size="11" fill="#3b82f6" font-weight="600">校验</text>
  <text x="872" y="330" font-size="10" fill="#94a3b8">JSON语法校验</text>

  <rect x="992" y="282" width="130" height="80" rx="8" fill="#f8fafc" stroke="#e2e8f0" stroke-width="1"/>
  <text x="1016" y="314" font-size="11" fill="#3b82f6" font-weight="600">Diff</text>
  <text x="1016" y="330" font-size="10" fill="#94a3b8">JSON对比差异</text>

  <!-- 加密解密 分类 -->
  <text x="272" y="396" font-size="14" fill="#1e293b" font-weight="600">加密解密</text>
  <line x1="272" y1="404" x2="1172" y2="404" stroke="#f1f5f9" stroke-width="1"/>

  <rect x="272" y="414" width="130" height="80" rx="8" fill="#f8fafc" stroke="#e2e8f0" stroke-width="1"/>
  <text x="296" y="446" font-size="11" fill="#3b82f6" font-weight="600">AES</text>
  <text x="296" y="462" font-size="10" fill="#94a3b8">AES加解密工具</text>

  <rect x="416" y="414" width="130" height="80" rx="8" fill="#f8fafc" stroke="#e2e8f0" stroke-width="1"/>
  <text x="440" y="446" font-size="11" fill="#3b82f6" font-weight="600">DES/3DES</text>
  <text x="440" y="462" font-size="10" fill="#94a3b8">DES系列加解密</text>

  <rect x="560" y="414" width="130" height="80" rx="8" fill="#f8fafc" stroke="#e2e8f0" stroke-width="1"/>
  <text x="588" y="446" font-size="11" fill="#3b82f6" font-weight="600">RSA</text>
  <text x="588" y="462" font-size="10" fill="#94a3b8">RSA加解密签名</text>

  <rect x="704" y="414" width="130" height="80" rx="8" fill="#f8fafc" stroke="#e2e8f0" stroke-width="1"/>
  <text x="728" y="446" font-size="11" fill="#3b82f6" font-weight="600">哈希摘要</text>
  <text x="728" y="462" font-size="10" fill="#94a3b8">MD5/SHA/HMAC</text>

  <rect x="848" y="414" width="130" height="80" rx="8" fill="#f8fafc" stroke="#e2e8f0" stroke-width="1"/>
  <text x="872" y="446" font-size="11" fill="#3b82f6" font-weight="600">密钥工具</text>
  <text x="872" y="462" font-size="10" fill="#94a3b8">密钥生成/KCV</text>

  <rect x="992" y="414" width="130" height="80" rx="8" fill="#f8fafc" stroke="#e2e8f0" stroke-width="1"/>
  <text x="1016" y="446" font-size="11" fill="#3b82f6" font-weight="600">OpenSSL</text>
  <text x="1016" y="462" font-size="10" fill="#94a3b8">证书/命令/格式</text>

  <!-- 其他工具 分类 -->
  <text x="272" y="528" font-size="14" fill="#1e293b" font-weight="600">其他工具</text>
  <line x1="272" y1="536" x2="1172" y2="536" stroke="#f1f5f9" stroke-width="1"/>

  <rect x="272" y="546" width="130" height="80" rx="8" fill="#f8fafc" stroke="#e2e8f0" stroke-width="1"/>
  <text x="296" y="578" font-size="11" fill="#3b82f6" font-weight="600">进制转换</text>
  <text x="296" y="594" font-size="10" fill="#94a3b8">2/8/10/16进制互转</text>

  <rect x="416" y="546" width="130" height="80" rx="8" fill="#f8fafc" stroke="#e2e8f0" stroke-width="1"/>
  <text x="440" y="578" font-size="11" fill="#3b82f6" font-weight="600">二维码</text>
  <text x="440" y="594" font-size="10" fill="#94a3b8">生成与解析</text>

  <rect x="560" y="546" width="130" height="80" rx="8" fill="#f8fafc" stroke="#e2e8f0" stroke-width="1"/>
  <text x="580" y="578" font-size="11" fill="#3b82f6" font-weight="600">HTTP Client</text>
  <text x="580" y="594" font-size="10" fill="#94a3b8">HTTP请求调试</text>

  <rect x="704" y="546" width="130" height="80" rx="8" fill="#f8fafc" stroke="#e2e8f0" stroke-width="1"/>
  <text x="724" y="578" font-size="11" fill="#3b82f6" font-weight="600">时间计算</text>
  <text x="724" y="594" font-size="10" fill="#94a3b8">时间戳转换推算</text>

  <rect x="848" y="546" width="130" height="80" rx="8" fill="#f8fafc" stroke="#e2e8f0" stroke-width="1"/>
  <text x="872" y="578" font-size="11" fill="#3b82f6" font-weight="600">Cron</text>
  <text x="872" y="594" font-size="10" fill="#94a3b8">Cron表达式工具</text>

  <rect x="992" y="546" width="130" height="80" rx="8" fill="#f8fafc" stroke="#e2e8f0" stroke-width="1"/>
  <text x="1016" y="578" font-size="11" fill="#3b82f6" font-weight="600">正则调试</text>
  <text x="1016" y="594" font-size="10" fill="#94a3b8">正则匹配测试</text>

  <!-- 第4行 -->
  <rect x="272" y="640" width="130" height="80" rx="8" fill="#f8fafc" stroke="#e2e8f0" stroke-width="1"/>
  <text x="296" y="672" font-size="11" fill="#3b82f6" font-weight="600">Grok调试</text>
  <text x="296" y="688" font-size="10" fill="#94a3b8">Grok表达式解析</text>

  <rect x="416" y="640" width="130" height="80" rx="8" fill="#f8fafc" stroke="#e2e8f0" stroke-width="1"/>
  <text x="440" y="672" font-size="11" fill="#3b82f6" font-weight="600">Nginx</text>
  <text x="440" y="688" font-size="10" fill="#94a3b8">格式化校验模板</text>

  <rect x="560" y="640" width="130" height="80" rx="8" fill="#f8fafc" stroke="#e2e8f0" stroke-width="1"/>
  <text x="580" y="672" font-size="11" fill="#3b82f6" font-weight="600">配置转换</text>
  <text x="580" y="688" font-size="10" fill="#94a3b8">Props/YAML/JSON</text>

  <rect x="704" y="640" width="130" height="80" rx="8" fill="#f8fafc" stroke="#e2e8f0" stroke-width="1"/>
  <text x="724" y="672" font-size="11" fill="#3b82f6" font-weight="600">JWT解析</text>
  <text x="724" y="688" font-size="10" fill="#94a3b8">JWT Token解码</text>

  <rect x="848" y="640" width="130" height="80" rx="8" fill="#f8fafc" stroke="#e2e8f0" stroke-width="1"/>
  <text x="868" y="672" font-size="11" fill="#3b82f6" font-weight="600">HTML实体</text>
  <text x="868" y="688" font-size="10" fill="#94a3b8">HTML编解码</text>

  <rect x="992" y="640" width="130" height="80" rx="8" fill="#f8fafc" stroke="#e2e8f0" stroke-width="1"/>
  <text x="1016" y="672" font-size="11" fill="#3b82f6" font-weight="600">颜色转换</text>
  <text x="1016" y="688" font-size="10" fill="#94a3b8">HEX/RGB/HSL</text>
</svg>
