<svg xmlns="http://www.w3.org/2000/svg" viewBox="0 0 1200 800" font-family="'Segoe UI', 'PingFang SC', 'Microsoft YaHei', sans-serif">
  <defs>
    <linearGradient id="sidebarBg" x1="0" y1="0" x2="1" y2="0">
      <stop offset="0%" stop-color="#f7f8fa"/>
      <stop offset="100%" stop-color="#ffffff"/>
    </linearGradient>
    <linearGradient id="primaryBtn" x1="0" y1="0" x2="1" y2="1">
      <stop offset="0%" stop-color="#3b82f6"/>
      <stop offset="100%" stop-color="#2563eb"/>
    </linearGradient>
  </defs>

  <rect x="0" y="0" width="1200" height="800" rx="8" fill="#ffffff" stroke="#d8dce6" stroke-width="1"/>

  <!-- 标题栏 -->
  <rect x="0" y="0" width="1200" height="40" rx="8" fill="#ffffff"/>
  <rect x="0" y="20" width="1200" height="20" fill="#ffffff"/>
  <line x1="0" y1="40" x2="1200" y2="40" stroke="#e8eaef" stroke-width="1"/>
  <circle cx="20" cy="20" r="6" fill="#ff5f57"/>
  <circle cx="40" cy="20" r="6" fill="#febc2e"/>
  <circle cx="60" cy="20" r="6" fill="#28c840"/>
  <rect x="80" y="9" width="22" height="22" rx="5" fill="url(#primaryBtn)"/>
  <text x="85" y="24" font-size="11" fill="#ffffff" font-weight="bold">DT</text>
  <text x="112" y="25" font-size="14" fill="#1e293b" font-weight="600">DevToolkit</text>
  <text x="200" y="25" font-size="11" fill="#94a3b8">v1.0.0</text>
  <text x="1134" y="25" font-size="14" fill="#94a3b8">_</text>
  <rect x="1156" y="12" width="10" height="10" fill="none" stroke="#94a3b8" stroke-width="1.2" rx="1"/>
  <text x="1178" y="26" font-size="16" fill="#94a3b8">x</text>

  <!-- 侧边栏 -->
  <rect x="0" y="40" width="240" height="760" fill="url(#sidebarBg)"/>
  <line x1="240" y1="40" x2="240" y2="800" stroke="#e8eaef" stroke-width="1"/>
  <rect x="222" y="48" width="14" height="14" rx="3" fill="#f1f5f9" stroke="#d0d5dd" stroke-width="1"/>
  <text x="224" y="59" font-size="9" fill="#64748b">&lt;</text>

  <!-- 搜索框 -->
  <rect x="12" y="52" width="204" height="34" rx="6" fill="#ffffff" stroke="#d0d5dd" stroke-width="1"/>
  <text x="26" y="74" font-size="12" fill="#94a3b8">搜索工具...</text>

  <!-- 字符编码 (Unicode 选中) -->
  <text x="16" y="112" font-size="11" fill="#94a3b8" font-weight="600" letter-spacing="0.5">字符编码</text>
  <rect x="8" y="120" width="224" height="32" rx="6" fill="transparent"/>
  <text x="24" y="140" font-size="12" fill="#475569">Hex 转换</text>
  <rect x="8" y="154" width="224" height="32" rx="6" fill="transparent"/>
  <text x="24" y="174" font-size="12" fill="#475569">Base64 编解码</text>
  <rect x="8" y="188" width="224" height="32" rx="6" fill="transparent"/>
  <text x="24" y="208" font-size="12" fill="#475569">ASCII 转换</text>
  <rect x="8" y="222" width="224" height="32" rx="6" fill="transparent"/>
  <text x="24" y="242" font-size="12" fill="#475569">URL 编解码</text>
  <rect x="8" y="256" width="224" height="32" rx="6" fill="#eff6ff"/>
  <rect x="8" y="256" width="3" height="32" rx="1" fill="#3b82f6"/>
  <text x="24" y="276" font-size="12" fill="#2563eb" font-weight="500">Unicode 编解码</text>

  <!-- JSON 工具 -->
  <text x="16" y="312" font-size="11" fill="#94a3b8" font-weight="600" letter-spacing="0.5">JSON 工具</text>
  <rect x="8" y="320" width="224" height="32" rx="6" fill="transparent"/>
  <text x="24" y="340" font-size="12" fill="#475569">Pretty 格式化</text>
  <rect x="8" y="354" width="224" height="32" rx="6" fill="transparent"/>
  <text x="24" y="374" font-size="12" fill="#475569">JSON 压缩</text>
  <rect x="8" y="388" width="224" height="32" rx="6" fill="transparent"/>
  <text x="24" y="408" font-size="12" fill="#475569">反序列化</text>
  <rect x="8" y="422" width="224" height="32" rx="6" fill="transparent"/>
  <text x="24" y="442" font-size="12" fill="#475569">JSONPath 查询</text>
  <rect x="8" y="456" width="224" height="32" rx="6" fill="transparent"/>
  <text x="24" y="476" font-size="12" fill="#475569">Diff</text>

  <!-- 加密解密 -->
  <text x="16" y="512" font-size="11" fill="#94a3b8" font-weight="600" letter-spacing="0.5">加密解密</text>
  <rect x="8" y="520" width="224" height="32" rx="6" fill="transparent"/>
  <text x="24" y="540" font-size="12" fill="#475569">AES 加密/解密</text>
  <rect x="8" y="554" width="224" height="32" rx="6" fill="transparent"/>
  <text x="24" y="574" font-size="12" fill="#475569">DES / 3DES</text>
  <rect x="8" y="588" width="224" height="32" rx="6" fill="transparent"/>
  <text x="24" y="608" font-size="12" fill="#475569">RSA 工具</text>
  <rect x="8" y="622" width="224" height="32" rx="6" fill="transparent"/>
  <text x="24" y="642" font-size="12" fill="#475569">哈希摘要</text>
  <rect x="8" y="656" width="224" height="32" rx="6" fill="transparent"/>
  <text x="24" y="676" font-size="12" fill="#475569">密钥工具</text>
  <rect x="8" y="690" width="224" height="32" rx="6" fill="transparent"/>
  <text x="24" y="710" font-size="12" fill="#475569">OpenSSL</text>

  <!-- 数字计算 -->
  <text x="16" y="746" font-size="11" fill="#94a3b8" font-weight="600" letter-spacing="0.5">数字计算</text>
  <rect x="8" y="754" width="224" height="32" rx="6" fill="transparent"/>
  <text x="24" y="774" font-size="12" fill="#475569">进制转换</text>

  <!-- 侧边栏滚动条 -->
  <rect x="232" y="96" width="6" height="640" rx="3" fill="#f1f5f9"/>
  <rect x="232" y="96" width="6" height="200" rx="3" fill="#cbd5e1"/>

  <!-- 内容区 -->
  <rect x="240" y="40" width="960" height="760" fill="#ffffff"/>

  <!-- 面包屑 -->
  <text x="268" y="70" font-size="12" fill="#94a3b8">字符编码</text>
  <text x="330" y="70" font-size="12" fill="#cbd5e1">/</text>
  <text x="342" y="70" font-size="12" fill="#1e293b" font-weight="500">Unicode 编解码</text>

  <!-- 工具面板卡片 -->
  <rect x="256" y="88" width="928" height="690" rx="10" fill="#ffffff" stroke="#e2e8f0" stroke-width="1"/>

  <!-- Tab: 编码(选中) | 解码 -->
  <rect x="276" y="104" width="80" height="32" rx="6" fill="url(#primaryBtn)"/>
  <text x="298" y="124" font-size="13" fill="#ffffff" font-weight="500">编码</text>
  <rect x="364" y="104" width="80" height="32" rx="6" fill="#f1f5f9" stroke="#e2e8f0" stroke-width="1"/>
  <text x="386" y="124" font-size="13" fill="#64748b">解码</text>

  <!-- 配置行：格式选择 -->
  <rect x="276" y="148" width="888" height="44" rx="8" fill="#f8fafc"/>
  <text x="292" y="175" font-size="12" fill="#64748b">输出格式</text>
  <rect x="356" y="158" width="100" height="26" rx="4" fill="#ffffff" stroke="#3b82f6" stroke-width="1.5"/>
  <text x="368" y="176" font-size="11" fill="#2563eb" font-weight="500">\uXXXX</text>
  <rect x="466" y="158" width="100" height="26" rx="4" fill="#ffffff" stroke="#d0d5dd" stroke-width="1"/>
  <text x="478" y="176" font-size="11" fill="#64748b">U+XXXX</text>
  <rect x="576" y="158" width="140" height="26" rx="4" fill="#ffffff" stroke="#d0d5dd" stroke-width="1"/>
  <text x="588" y="176" font-size="11" fill="#64748b">HTML Entity &amp;#x;</text>

  <!-- 输入区标题 -->
  <rect x="276" y="204" width="888" height="28" fill="#f8fafc"/>
  <line x1="276" y1="232" x2="1164" y2="232" stroke="#e2e8f0" stroke-width="1"/>
  <text x="292" y="222" font-size="12" fill="#64748b" font-weight="500">输入（原始文本）</text>

  <!-- 输入编辑区 -->
  <rect x="276" y="232" width="888" height="200" fill="#ffffff" stroke="#e2e8f0" stroke-width="1"/>
  <rect x="276" y="232" width="30" height="200" fill="#f8fafc"/>
  <text x="284" y="256" font-size="10" fill="#cbd5e1" font-family="'Consolas', monospace">1</text>
  <text x="284" y="279" font-size="10" fill="#cbd5e1" font-family="'Consolas', monospace">2</text>
  <text x="284" y="302" font-size="10" fill="#cbd5e1" font-family="'Consolas', monospace">3</text>
  <text x="284" y="325" font-size="10" fill="#cbd5e1" font-family="'Consolas', monospace">4</text>
  <text x="284" y="348" font-size="10" fill="#cbd5e1" font-family="'Consolas', monospace">5</text>
  <text x="284" y="371" font-size="10" fill="#cbd5e1" font-family="'Consolas', monospace">6</text>
  <text x="284" y="394" font-size="10" fill="#cbd5e1" font-family="'Consolas', monospace">7</text>
  <text x="284" y="417" font-size="10" fill="#cbd5e1" font-family="'Consolas', monospace">8</text>
  <line x1="306" y1="232" x2="306" y2="432" stroke="#f1f5f9" stroke-width="1"/>
  <text x="316" y="256" font-size="13" fill="#1e293b" font-family="'Consolas', monospace">Hello 你好</text>
  <!-- 输入区滚动条 -->
  <rect x="1152" y="232" width="6" height="200" rx="3" fill="#f1f5f9"/>
  <rect x="1152" y="232" width="6" height="60" rx="3" fill="#cbd5e1"/>

  <!-- 交换按钮 -->
  <rect x="680" y="440" width="80" height="28" rx="14" fill="url(#primaryBtn)"/>
  <text x="700" y="458" font-size="11" fill="#ffffff">交换 ⇅</text>

  <!-- 输出区标题 -->
  <rect x="276" y="476" width="888" height="28" fill="#f8fafc"/>
  <line x1="276" y1="504" x2="1164" y2="504" stroke="#e2e8f0" stroke-width="1"/>
  <text x="292" y="494" font-size="12" fill="#64748b" font-weight="500">输出（Unicode 转义）</text>
  <rect x="1024" y="482" width="82" height="20" rx="4" fill="url(#primaryBtn)"/>
  <text x="1034" y="496" font-size="10" fill="#ffffff">紧凑复制</text>
  <rect x="1114" y="482" width="48" height="20" rx="4" fill="#ffffff" stroke="#d0d5dd" stroke-width="1"/>
  <text x="1122" y="496" font-size="10" fill="#64748b">复制</text>

  <!-- 输出展示区 -->
  <rect x="276" y="504" width="888" height="200" fill="#f8faff" stroke="#e2e8f0" stroke-width="1"/>
  <rect x="276" y="504" width="30" height="200" fill="#f1f5f9"/>
  <text x="284" y="528" font-size="10" fill="#cbd5e1" font-family="'Consolas', monospace">1</text>
  <text x="284" y="551" font-size="10" fill="#cbd5e1" font-family="'Consolas', monospace">2</text>
  <text x="284" y="574" font-size="10" fill="#cbd5e1" font-family="'Consolas', monospace">3</text>
  <text x="284" y="597" font-size="10" fill="#cbd5e1" font-family="'Consolas', monospace">4</text>
  <text x="284" y="620" font-size="10" fill="#cbd5e1" font-family="'Consolas', monospace">5</text>
  <text x="284" y="643" font-size="10" fill="#cbd5e1" font-family="'Consolas', monospace">6</text>
  <text x="284" y="666" font-size="10" fill="#cbd5e1" font-family="'Consolas', monospace">7</text>
  <text x="284" y="689" font-size="10" fill="#cbd5e1" font-family="'Consolas', monospace">8</text>
  <line x1="306" y1="504" x2="306" y2="704" stroke="#f1f5f9" stroke-width="1"/>
  <text x="316" y="528" font-size="13" fill="#3b82f6" font-family="'Consolas', monospace">Hello 你好</text>
  <text x="316" y="551" font-size="12" fill="#94a3b8" font-style="italic">即 "Hello 你好" 的 Unicode 转义序列</text>
  <!-- 输出区滚动条 -->
  <rect x="1152" y="504" width="6" height="200" rx="3" fill="#f1f5f9"/>
  <rect x="1152" y="504" width="6" height="50" rx="3" fill="#cbd5e1"/>

  <!-- 历史记录 -->
  <rect x="276" y="720" width="888" height="50" rx="8" fill="#f8fafc" stroke="#e2e8f0" stroke-width="1"/>
  <text x="292" y="740" font-size="11" fill="#94a3b8" font-weight="500">历史记录（最近 5 条）</text>
  <text x="1132" y="740" font-size="11" fill="#cbd5e1">清除</text>
  <rect x="292" y="748" width="300" height="16" rx="4" fill="#ffffff" stroke="#e2e8f0" stroke-width="1"/>
  <text x="300" y="760" font-size="9" fill="#94a3b8">编码 | Hello 你好 → Hel...</text>
  <rect x="604" y="748" width="300" height="16" rx="4" fill="#ffffff" stroke="#e2e8f0" stroke-width="1"/>
  <text x="612" y="760" font-size="9" fill="#94a3b8">解码 | 你好 → 你好</text>
</svg>
