<svg xmlns="http://www.w3.org/2000/svg" viewBox="0 0 1200 800" font-family="'Segoe UI', 'PingFang SC', 'Microsoft YaHei', sans-serif">
  <defs>
    <linearGradient id="sidebarBg" x1="0" y1="0" x2="1" y2="0">
      <stop offset="0%" stop-color="#f7f8fa"/>
      <stop offset="100%" stop-color="#ffffff"/>
    </linearGradient>
    <linearGradient id="primaryBtn" x1="0" y1="0" x2="1" y2="1">
      <stop offset="0%" stop-color="#3b82f6"/>
      <stop offset="100%" stop-color="#2563eb"/>
    </linearGradient>
  </defs>

  <rect x="0" y="0" width="1200" height="800" rx="8" fill="#ffffff" stroke="#d8dce6" stroke-width="1"/>

  <!-- 标题栏 -->
  <rect x="0" y="0" width="1200" height="40" rx="8" fill="#ffffff"/>
  <rect x="0" y="20" width="1200" height="20" fill="#ffffff"/>
  <line x1="0" y1="40" x2="1200" y2="40" stroke="#e8eaef" stroke-width="1"/>
  <circle cx="20" cy="20" r="6" fill="#ff5f57"/>
  <circle cx="40" cy="20" r="6" fill="#febc2e"/>
  <circle cx="60" cy="20" r="6" fill="#28c840"/>
  <rect x="80" y="9" width="22" height="22" rx="5" fill="url(#primaryBtn)"/>
  <text x="85" y="24" font-size="11" fill="#ffffff" font-weight="bold">DT</text>
  <text x="112" y="25" font-size="14" fill="#1e293b" font-weight="600">DevToolkit</text>
  <text x="200" y="25" font-size="11" fill="#94a3b8">v1.0.0</text>
  <text x="1134" y="25" font-size="14" fill="#94a3b8">-</text>
  <rect x="1156" y="12" width="10" height="10" fill="none" stroke="#94a3b8" stroke-width="1.2" rx="1"/>
  <text x="1178" y="26" font-size="16" fill="#94a3b8">x</text>

  <!-- 侧边栏 -->
  <rect x="0" y="40" width="240" height="760" fill="url(#sidebarBg)"/>
  <line x1="240" y1="40" x2="240" y2="800" stroke="#e8eaef" stroke-width="1"/>
  <rect x="222" y="48" width="14" height="14" rx="3" fill="#f1f5f9" stroke="#d0d5dd" stroke-width="1"/>
  <text x="224" y="59" font-size="9" fill="#64748b">&lt;</text>
  <rect x="12" y="52" width="204" height="34" rx="6" fill="#ffffff" stroke="#d0d5dd" stroke-width="1"/>
  <text x="26" y="74" font-size="12" fill="#94a3b8">搜索工具...</text>

  <!-- 字符编码 -->
  <text x="16" y="112" font-size="11" fill="#94a3b8" font-weight="600" letter-spacing="0.5">字符编码</text>
  <rect x="8" y="120" width="224" height="32" rx="6" fill="transparent"/>
  <text x="24" y="140" font-size="12" fill="#475569">Hex 转换</text>
  <rect x="8" y="154" width="224" height="32" rx="6" fill="transparent"/>
  <text x="24" y="174" font-size="12" fill="#475569">Base64 编解码</text>
  <rect x="8" y="188" width="224" height="32" rx="6" fill="transparent"/>
  <text x="24" y="208" font-size="12" fill="#475569">ASCII 转换</text>
  <rect x="8" y="222" width="224" height="32" rx="6" fill="transparent"/>
  <text x="24" y="242" font-size="12" fill="#475569">URL 编解码</text>
  <rect x="8" y="256" width="224" height="32" rx="6" fill="transparent"/>
  <text x="24" y="276" font-size="12" fill="#475569">Unicode 编解码</text>

  <!-- JSON工具 (JSON Diff 选中, 放在最后) -->
  <text x="16" y="312" font-size="11" fill="#94a3b8" font-weight="600" letter-spacing="0.5">JSON 工具</text>
  <rect x="8" y="320" width="224" height="32" rx="6" fill="transparent"/>
  <text x="24" y="340" font-size="12" fill="#475569">Pretty 格式化</text>
  <rect x="8" y="354" width="224" height="32" rx="6" fill="transparent"/>
  <text x="24" y="374" font-size="12" fill="#475569">JSON 压缩</text>
  <rect x="8" y="388" width="224" height="32" rx="6" fill="transparent"/>
  <text x="24" y="408" font-size="12" fill="#475569">反序列化</text>
  <rect x="8" y="422" width="224" height="32" rx="6" fill="transparent"/>
  <text x="24" y="442" font-size="12" fill="#475569">JSONPath 查询</text>
  <rect x="8" y="456" width="224" height="32" rx="6" fill="transparent"/>
  <text x="24" y="476" font-size="12" fill="#475569">JSON 校验</text>
  <!-- 选中项: JSON Diff -->
  <rect x="8" y="490" width="224" height="32" rx="6" fill="#eff6ff"/>
  <rect x="8" y="490" width="3" height="32" rx="1" fill="#3b82f6"/>
  <text x="24" y="510" font-size="12" fill="#2563eb" font-weight="500">JSON Diff</text>

  <!-- 加密解密 -->
  <text x="16" y="546" font-size="11" fill="#94a3b8" font-weight="600" letter-spacing="0.5">加密解密</text>
  <rect x="8" y="554" width="224" height="32" rx="6" fill="transparent"/>
  <text x="24" y="574" font-size="12" fill="#475569">AES 加密/解密</text>
  <rect x="8" y="588" width="224" height="32" rx="6" fill="transparent"/>
  <text x="24" y="608" font-size="12" fill="#475569">DES / 3DES</text>
  <rect x="8" y="622" width="224" height="32" rx="6" fill="transparent"/>
  <text x="24" y="642" font-size="12" fill="#475569">RSA 工具</text>
  <rect x="8" y="656" width="224" height="32" rx="6" fill="transparent"/>
  <text x="24" y="676" font-size="12" fill="#475569">哈希摘要</text>
  <rect x="8" y="690" width="224" height="32" rx="6" fill="transparent"/>
  <text x="24" y="710" font-size="12" fill="#475569">密钥工具</text>

  <text x="16" y="746" font-size="11" fill="#94a3b8" font-weight="600" letter-spacing="0.5">数字计算</text>
  <rect x="8" y="754" width="224" height="26" rx="6" fill="transparent"/>
  <text x="24" y="772" font-size="12" fill="#475569">进制转换</text>

  <!-- ========== 内容区 ========== -->
  <rect x="240" y="40" width="960" height="760" fill="#ffffff"/>

  <!-- 面包屑 -->
  <text x="268" y="70" font-size="12" fill="#94a3b8">JSON 工具</text>
  <text x="340" y="70" font-size="12" fill="#cbd5e1">/</text>
  <text x="352" y="70" font-size="12" fill="#1e293b" font-weight="500">JSON Diff 对比</text>

  <!-- 面板卡片 -->
  <rect x="260" y="84" width="920" height="696" rx="8" fill="#ffffff" stroke="#e2e8f0" stroke-width="1"/>

  <!-- 左右两栏标题 -->
  <text x="280" y="114" font-size="14" fill="#1e293b" font-weight="600">JSON A</text>
  <text x="744" y="114" font-size="14" fill="#1e293b" font-weight="600">JSON B</text>

  <!-- 中间分割线 -->
  <line x1="720" y1="84" x2="720" y2="370" stroke="#e2e8f0" stroke-width="1"/>

  <!-- 左侧输入框 JSON A -->
  <rect x="280" y="122" width="420" height="240" rx="6" fill="#f8fafc" stroke="#e2e8f0" stroke-width="1"/>
  <!-- 行号 -->
  <rect x="280" y="122" width="32" height="240" rx="6" fill="#f8fafc"/>
  <line x1="312" y1="122" x2="312" y2="362" stroke="#e2e8f0" stroke-width="1"/>
  <text x="290" y="146" font-size="11" fill="#cbd5e1" font-family="'Consolas',monospace">1</text>
  <text x="290" y="166" font-size="11" fill="#cbd5e1" font-family="'Consolas',monospace">2</text>
  <text x="290" y="186" font-size="11" fill="#cbd5e1" font-family="'Consolas',monospace">3</text>
  <text x="290" y="206" font-size="11" fill="#cbd5e1" font-family="'Consolas',monospace">4</text>
  <text x="290" y="226" font-size="11" fill="#cbd5e1" font-family="'Consolas',monospace">5</text>
  <text x="290" y="246" font-size="11" fill="#cbd5e1" font-family="'Consolas',monospace">6</text>
  <text x="290" y="266" font-size="11" fill="#cbd5e1" font-family="'Consolas',monospace">7</text>
  <text x="290" y="286" font-size="11" fill="#cbd5e1" font-family="'Consolas',monospace">8</text>
  <text x="290" y="306" font-size="11" fill="#cbd5e1" font-family="'Consolas',monospace">9</text>

  <!-- JSON A 内容 -->
  <text x="324" y="146" font-size="12" fill="#1e293b" font-family="'Consolas',monospace">{</text>
  <text x="336" y="166" font-size="12" fill="#64748b" font-family="'Consolas',monospace">"name"</text>
  <text x="386" y="166" font-size="12" fill="#1e293b" font-family="'Consolas',monospace">: "张三",</text>
  <text x="336" y="186" font-size="12" fill="#64748b" font-family="'Consolas',monospace">"age"</text>
  <text x="376" y="186" font-size="12" fill="#1e293b" font-family="'Consolas',monospace">: 25,</text>
  <text x="336" y="206" font-size="12" fill="#64748b" font-family="'Consolas',monospace">"city"</text>
  <text x="376" y="206" font-size="12" fill="#1e293b" font-family="'Consolas',monospace">: "北京",</text>
  <text x="336" y="226" font-size="12" fill="#64748b" font-family="'Consolas',monospace">"tags"</text>
  <text x="380" y="226" font-size="12" fill="#1e293b" font-family="'Consolas',monospace">: ["dev"]</text>
  <text x="324" y="246" font-size="12" fill="#1e293b" font-family="'Consolas',monospace">}</text>

  <!-- 右侧输入框 JSON B -->
  <rect x="740" y="122" width="420" height="240" rx="6" fill="#f8fafc" stroke="#e2e8f0" stroke-width="1"/>
  <!-- 行号 -->
  <rect x="740" y="122" width="32" height="240" rx="6" fill="#f8fafc"/>
  <line x1="772" y1="122" x2="772" y2="362" stroke="#e2e8f0" stroke-width="1"/>
  <text x="750" y="146" font-size="11" fill="#cbd5e1" font-family="'Consolas',monospace">1</text>
  <text x="750" y="166" font-size="11" fill="#cbd5e1" font-family="'Consolas',monospace">2</text>
  <text x="750" y="186" font-size="11" fill="#cbd5e1" font-family="'Consolas',monospace">3</text>
  <text x="750" y="206" font-size="11" fill="#cbd5e1" font-family="'Consolas',monospace">4</text>
  <text x="750" y="226" font-size="11" fill="#cbd5e1" font-family="'Consolas',monospace">5</text>
  <text x="750" y="246" font-size="11" fill="#cbd5e1" font-family="'Consolas',monospace">6</text>
  <text x="750" y="266" font-size="11" fill="#cbd5e1" font-family="'Consolas',monospace">7</text>
  <text x="750" y="286" font-size="11" fill="#cbd5e1" font-family="'Consolas',monospace">8</text>
  <text x="750" y="306" font-size="11" fill="#cbd5e1" font-family="'Consolas',monospace">9</text>

  <!-- JSON B 内容 -->
  <text x="784" y="146" font-size="12" fill="#1e293b" font-family="'Consolas',monospace">{</text>
  <text x="796" y="166" font-size="12" fill="#64748b" font-family="'Consolas',monospace">"name"</text>
  <text x="846" y="166" font-size="12" fill="#1e293b" font-family="'Consolas',monospace">: "李四",</text>
  <text x="796" y="186" font-size="12" fill="#64748b" font-family="'Consolas',monospace">"age"</text>
  <text x="836" y="186" font-size="12" fill="#1e293b" font-family="'Consolas',monospace">: 30,</text>
  <text x="796" y="206" font-size="12" fill="#64748b" font-family="'Consolas',monospace">"city"</text>
  <text x="836" y="206" font-size="12" fill="#1e293b" font-family="'Consolas',monospace">: "上海",</text>
  <text x="796" y="226" font-size="12" fill="#64748b" font-family="'Consolas',monospace">"email"</text>
  <text x="844" y="226" font-size="12" fill="#1e293b" font-family="'Consolas',monospace">: "test@test.com",</text>
  <text x="796" y="246" font-size="12" fill="#64748b" font-family="'Consolas',monospace">"tags"</text>
  <text x="840" y="246" font-size="12" fill="#1e293b" font-family="'Consolas',monospace">: ["dev","test"]</text>
  <text x="784" y="266" font-size="12" fill="#1e293b" font-family="'Consolas',monospace">}</text>

  <!-- 对比按钮 -->
  <rect x="620" y="372" width="120" height="36" rx="6" fill="url(#primaryBtn)"/>
  <text x="648" y="395" font-size="13" fill="#ffffff" font-weight="500">对比</text>
  <!-- 对比图标 -->
  <line x1="666" y1="388" x2="678" y2="388" stroke="#ffffff" stroke-width="1.5"/>
  <line x1="666" y1="392" x2="678" y2="392" stroke="#ffffff" stroke-width="1.5"/>
  <line x1="666" y1="396" x2="678" y2="396" stroke="#ffffff" stroke-width="1.5"/>

  <!-- 对比结果面板标题 -->
  <text x="280" y="430" font-size="14" fill="#1e293b" font-weight="600">对比结果</text>

  <!-- 对比结果面板 -->
  <rect x="280" y="440" width="880" height="280" rx="6" fill="#ffffff" stroke="#e2e8f0" stroke-width="1"/>

  <!-- 表头 -->
  <rect x="280" y="440" width="880" height="30" rx="6" fill="#f8fafc"/>
  <rect x="280" y="460" width="880" height="10" fill="#f8fafc"/>
  <text x="296" y="460" font-size="11" fill="#64748b" font-weight="600">状态</text>
  <text x="356" y="460" font-size="11" fill="#64748b" font-weight="600">路径</text>
  <text x="580" y="460" font-size="11" fill="#64748b" font-weight="600">JSON A</text>
  <text x="820" y="460" font-size="11" fill="#64748b" font-weight="600">JSON B</text>

  <line x1="280" y1="470" x2="1160" y2="470" stroke="#e2e8f0" stroke-width="1"/>

  <!-- 差异行1: 修改 (name 张三->李四, 黄底) -->
  <rect x="280" y="470" width="880" height="32" fill="#fefce8" opacity="0.6"/>
  <text x="296" y="491" font-size="11" fill="#d97706" font-weight="600">修改</text>
  <rect x="288" y="479" width="32" height="16" rx="3" fill="#fef3c7"/>
  <text x="292" y="491" font-size="9" fill="#d97706">MOD</text>
  <text x="356" y="491" font-size="12" fill="#1e293b" font-family="'Consolas',monospace">$.name</text>
  <text x="580" y="491" font-size="12" fill="#d97706" font-family="'Consolas',monospace">"张三"</text>
  <text x="820" y="491" font-size="12" fill="#d97706" font-family="'Consolas',monospace">"李四"</text>
  <line x1="280" y1="502" x2="1160" y2="502" stroke="#f1f5f9" stroke-width="1"/>

  <!-- 差异行2: 修改 (age 25->30, 黄底) -->
  <rect x="280" y="502" width="880" height="32" fill="#fefce8" opacity="0.6"/>
  <text x="296" y="523" font-size="11" fill="#d97706" font-weight="600">修改</text>
  <rect x="288" y="511" width="32" height="16" rx="3" fill="#fef3c7"/>
  <text x="292" y="523" font-size="9" fill="#d97706">MOD</text>
  <text x="356" y="523" font-size="12" fill="#1e293b" font-family="'Consolas',monospace">$.age</text>
  <text x="580" y="523" font-size="12" fill="#d97706" font-family="'Consolas',monospace">25</text>
  <text x="820" y="523" font-size="12" fill="#d97706" font-family="'Consolas',monospace">30</text>
  <line x1="280" y1="534" x2="1160" y2="534" stroke="#f1f5f9" stroke-width="1"/>

  <!-- 差异行3: 修改 (city 北京->上海, 黄底) -->
  <rect x="280" y="534" width="880" height="32" fill="#fefce8" opacity="0.6"/>
  <text x="296" y="555" font-size="11" fill="#d97706" font-weight="600">修改</text>
  <rect x="288" y="543" width="32" height="16" rx="3" fill="#fef3c7"/>
  <text x="292" y="555" font-size="9" fill="#d97706">MOD</text>
  <text x="356" y="555" font-size="12" fill="#1e293b" font-family="'Consolas',monospace">$.city</text>
  <text x="580" y="555" font-size="12" fill="#d97706" font-family="'Consolas',monospace">"北京"</text>
  <text x="820" y="555" font-size="12" fill="#d97706" font-family="'Consolas',monospace">"上海"</text>
  <line x1="280" y1="566" x2="1160" y2="566" stroke="#f1f5f9" stroke-width="1"/>

  <!-- 差异行4: 新增 (email, 绿底) -->
  <rect x="280" y="566" width="880" height="32" fill="#f0fdf4" opacity="0.6"/>
  <text x="296" y="587" font-size="11" fill="#16a34a" font-weight="600">新增</text>
  <rect x="288" y="575" width="32" height="16" rx="3" fill="#dcfce7"/>
  <text x="292" y="587" font-size="9" fill="#16a34a">ADD</text>
  <text x="356" y="587" font-size="12" fill="#1e293b" font-family="'Consolas',monospace">$.email</text>
  <text x="580" y="587" font-size="12" fill="#94a3b8" font-family="'Consolas',monospace">-</text>
  <text x="820" y="587" font-size="12" fill="#16a34a" font-family="'Consolas',monospace">"test@test.com"</text>
  <line x1="280" y1="598" x2="1160" y2="598" stroke="#f1f5f9" stroke-width="1"/>

  <!-- 差异行5: 新增 (tags[1], 绿底) -->
  <rect x="280" y="598" width="880" height="32" fill="#f0fdf4" opacity="0.6"/>
  <text x="296" y="619" font-size="11" fill="#16a34a" font-weight="600">新增</text>
  <rect x="288" y="607" width="32" height="16" rx="3" fill="#dcfce7"/>
  <text x="292" y="619" font-size="9" fill="#16a34a">ADD</text>
  <text x="356" y="619" font-size="12" fill="#1e293b" font-family="'Consolas',monospace">$.tags[1]</text>
  <text x="580" y="619" font-size="12" fill="#94a3b8" font-family="'Consolas',monospace">-</text>
  <text x="820" y="619" font-size="12" fill="#16a34a" font-family="'Consolas',monospace">"test"</text>
  <line x1="280" y1="630" x2="1160" y2="630" stroke="#f1f5f9" stroke-width="1"/>

  <!-- 差异行6: 删除 (占位示例, 红底) -->
  <rect x="280" y="630" width="880" height="32" fill="#fef2f2" opacity="0.6"/>
  <text x="296" y="651" font-size="11" fill="#dc2626" font-weight="600">删除</text>
  <rect x="288" y="639" width="32" height="16" rx="3" fill="#fecaca"/>
  <text x="292" y="651" font-size="9" fill="#dc2626">DEL</text>
  <text x="356" y="651" font-size="12" fill="#1e293b" font-family="'Consolas',monospace">$.status</text>
  <text x="580" y="651" font-size="12" fill="#dc2626" font-family="'Consolas',monospace">"active"</text>
  <text x="820" y="651" font-size="12" fill="#94a3b8" font-family="'Consolas',monospace">-</text>
  <line x1="280" y1="662" x2="1160" y2="662" stroke="#f1f5f9" stroke-width="1"/>

  <!-- 底部统计栏 -->
  <line x1="260" y1="730" x2="1180" y2="730" stroke="#e2e8f0" stroke-width="1"/>

  <!-- 统计标签 -->
  <text x="280" y="754" font-size="12" fill="#64748b">差异统计:</text>

  <!-- 新增统计 -->
  <rect x="370" y="740" width="8" height="8" rx="2" fill="#22c55e"/>
  <text x="384" y="754" font-size="12" fill="#16a34a" font-weight="600">2</text>
  <text x="398" y="754" font-size="12" fill="#64748b">处新增</text>

  <!-- 删除统计 -->
  <rect x="470" y="740" width="8" height="8" rx="2" fill="#ef4444"/>
  <text x="484" y="754" font-size="12" fill="#dc2626" font-weight="600">1</text>
  <text x="498" y="754" font-size="12" fill="#64748b">处删除</text>

  <!-- 修改统计 -->
  <rect x="570" y="740" width="8" height="8" rx="2" fill="#f59e0b"/>
  <text x="584" y="754" font-size="12" fill="#d97706" font-weight="600">3</text>
  <text x="598" y="754" font-size="12" fill="#64748b">处修改</text>

  <!-- 导出按钮 -->
  <rect x="1060" y="738" width="90" height="30" rx="5" fill="#ffffff" stroke="#d0d5dd" stroke-width="1"/>
  <text x="1080" y="758" font-size="12" fill="#475569">导出结果</text>
</svg>