<svg xmlns="http://www.w3.org/2000/svg" viewBox="0 0 1200 800" font-family="'Segoe UI', 'PingFang SC', 'Microsoft YaHei', sans-serif">
  <defs>
    <linearGradient id="sidebarBg" x1="0" y1="0" x2="1" y2="0">
      <stop offset="0%" stop-color="#f7f8fa"/>
      <stop offset="100%" stop-color="#ffffff"/>
    </linearGradient>
    <linearGradient id="primaryBtn" x1="0" y1="0" x2="1" y2="1">
      <stop offset="0%" stop-color="#3b82f6"/>
      <stop offset="100%" stop-color="#2563eb"/>
    </linearGradient>
  </defs>

  <rect x="0" y="0" width="1200" height="800" rx="8" fill="#ffffff" stroke="#d8dce6" stroke-width="1"/>

  <!-- 标题栏 -->
  <rect x="0" y="0" width="1200" height="40" rx="8" fill="#ffffff"/>
  <rect x="0" y="20" width="1200" height="20" fill="#ffffff"/>
  <line x1="0" y1="40" x2="1200" y2="40" stroke="#e8eaef" stroke-width="1"/>
  <circle cx="20" cy="20" r="6" fill="#ff5f57"/>
  <circle cx="40" cy="20" r="6" fill="#febc2e"/>
  <circle cx="60" cy="20" r="6" fill="#28c840"/>
  <rect x="80" y="9" width="22" height="22" rx="5" fill="url(#primaryBtn)"/>
  <text x="85" y="24" font-size="11" fill="#ffffff" font-weight="bold">DT</text>
  <text x="112" y="25" font-size="14" fill="#1e293b" font-weight="600">DevToolkit</text>
  <text x="200" y="25" font-size="11" fill="#94a3b8">v1.0.0</text>
  <text x="1134" y="25" font-size="14" fill="#94a3b8">-</text>
  <rect x="1156" y="12" width="10" height="10" fill="none" stroke="#94a3b8" stroke-width="1.2" rx="1"/>
  <text x="1178" y="26" font-size="16" fill="#94a3b8">x</text>

  <!-- 侧边栏 -->
  <rect x="0" y="40" width="240" height="760" fill="url(#sidebarBg)"/>
  <line x1="240" y1="40" x2="240" y2="800" stroke="#e8eaef" stroke-width="1"/>
  <rect x="222" y="48" width="14" height="14" rx="3" fill="#f1f5f9" stroke="#d0d5dd" stroke-width="1"/>
  <text x="224" y="59" font-size="9" fill="#64748b">&lt;</text>

  <!-- 搜索框 -->
  <rect x="12" y="52" width="204" height="34" rx="6" fill="#ffffff" stroke="#d0d5dd" stroke-width="1"/>
  <text x="26" y="74" font-size="12" fill="#94a3b8">搜索工具...</text>

  <!-- 字符编码 -->
  <text x="16" y="112" font-size="11" fill="#94a3b8" font-weight="600" letter-spacing="0.5">字符编码</text>
  <rect x="8" y="120" width="224" height="32" rx="6" fill="transparent"/>
  <text x="24" y="140" font-size="12" fill="#475569">Hex 转换</text>
  <rect x="8" y="154" width="224" height="32" rx="6" fill="transparent"/>
  <text x="24" y="174" font-size="12" fill="#475569">Base64 编解码</text>
  <rect x="8" y="188" width="224" height="32" rx="6" fill="transparent"/>
  <text x="24" y="208" font-size="12" fill="#475569">ASCII 转换</text>
  <rect x="8" y="222" width="224" height="32" rx="6" fill="transparent"/>
  <text x="24" y="242" font-size="12" fill="#475569">URL 编解码</text>
  <rect x="8" y="256" width="224" height="32" rx="6" fill="transparent"/>
  <text x="24" y="276" font-size="12" fill="#475569">Unicode 编解码</text>

  <!-- JSON 工具 -->
  <text x="16" y="312" font-size="11" fill="#94a3b8" font-weight="600" letter-spacing="0.5">JSON 工具</text>
  <rect x="8" y="320" width="224" height="32" rx="6" fill="transparent"/>
  <text x="24" y="340" font-size="12" fill="#475569">Pretty 格式化</text>
  <rect x="8" y="354" width="224" height="32" rx="6" fill="transparent"/>
  <text x="24" y="374" font-size="12" fill="#475569">JSON 压缩</text>
  <rect x="8" y="388" width="224" height="32" rx="6" fill="transparent"/>
  <text x="24" y="408" font-size="12" fill="#475569">反序列化</text>
  <rect x="8" y="422" width="224" height="32" rx="6" fill="transparent"/>
  <text x="24" y="442" font-size="12" fill="#475569">JSONPath 查询</text>

  <!-- 加密解密 (AES 加密/解密 选中) -->
  <text x="16" y="478" font-size="11" fill="#94a3b8" font-weight="600" letter-spacing="0.5">加密解密</text>
  <rect x="8" y="486" width="224" height="32" rx="6" fill="#eff6ff"/>
  <rect x="8" y="486" width="3" height="32" rx="1" fill="#3b82f6"/>
  <text x="24" y="506" font-size="12" fill="#2563eb" font-weight="500">AES 加密/解密</text>
  <rect x="8" y="522" width="224" height="32" rx="6" fill="transparent"/>
  <text x="24" y="542" font-size="12" fill="#475569">DES / 3DES</text>
  <rect x="8" y="556" width="224" height="32" rx="6" fill="transparent"/>
  <text x="24" y="576" font-size="12" fill="#475569">RSA 工具</text>
  <rect x="8" y="590" width="224" height="32" rx="6" fill="transparent"/>
  <text x="24" y="610" font-size="12" fill="#475569">哈希摘要</text>
  <rect x="8" y="624" width="224" height="32" rx="6" fill="transparent"/>
  <text x="24" y="644" font-size="12" fill="#475569">密钥工具</text>

  <!-- 数字计算 -->
  <text x="16" y="680" font-size="11" fill="#94a3b8" font-weight="600" letter-spacing="0.5">数字计算</text>
  <rect x="8" y="688" width="224" height="32" rx="6" fill="transparent"/>
  <text x="24" y="708" font-size="12" fill="#475569">进制转换</text>
  <rect x="8" y="722" width="224" height="32" rx="6" fill="transparent"/>
  <text x="24" y="742" font-size="12" fill="#475569">公式求值</text>
  <rect x="8" y="756" width="224" height="32" rx="6" fill="transparent"/>
  <text x="24" y="776" font-size="12" fill="#475569">取模 / 整除</text>

  <!-- 内容区 -->
  <rect x="240" y="40" width="960" height="760" fill="#ffffff"/>

  <!-- 面包屑 -->
  <text x="268" y="70" font-size="12" fill="#94a3b8">加密解密</text>
  <text x="334" y="70" font-size="12" fill="#cbd5e1">/</text>
  <text x="346" y="70" font-size="12" fill="#1e293b" font-weight="500">AES 加密/解密</text>

  <!-- 工具面板卡片 -->
  <rect x="256" y="88" width="928" height="690" rx="10" fill="#ffffff" stroke="#e2e8f0" stroke-width="1"/>

  <!-- Tab 切换: 加密(选中) | 解密 -->
  <rect x="276" y="104" width="80" height="32" rx="6" fill="url(#primaryBtn)"/>
  <text x="298" y="124" font-size="13" fill="#ffffff" font-weight="500">加密</text>
  <rect x="364" y="104" width="80" height="32" rx="6" fill="#f1f5f9" stroke="#e2e8f0" stroke-width="1"/>
  <text x="386" y="124" font-size="13" fill="#64748b">解密</text>

  <!-- 参数配置行 -->
  <rect x="276" y="148" width="888" height="44" rx="8" fill="#f8fafc"/>

  <!-- 模式 -->
  <text x="292" y="175" font-size="12" fill="#64748b">模式</text>
  <rect x="328" y="158" width="100" height="26" rx="4" fill="#ffffff" stroke="#d0d5dd" stroke-width="1"/>
  <text x="340" y="176" font-size="11" fill="#1e293b">CBC  ▾</text>

  <!-- 填充 -->
  <text x="448" y="175" font-size="12" fill="#64748b">填充</text>
  <rect x="484" y="158" width="100" height="26" rx="4" fill="#ffffff" stroke="#d0d5dd" stroke-width="1"/>
  <text x="496" y="176" font-size="11" fill="#1e293b">PKCS7  ▾</text>

  <!-- 密钥长度 -->
  <text x="604" y="175" font-size="12" fill="#64748b">密钥长度</text>
  <rect x="672" y="158" width="100" height="26" rx="4" fill="#ffffff" stroke="#d0d5dd" stroke-width="1"/>
  <text x="684" y="176" font-size="11" fill="#1e293b">256  ▾</text>

  <!-- 输出格式 -->
  <text x="792" y="175" font-size="12" fill="#64748b">输出格式</text>
  <rect x="860" y="158" width="100" height="26" rx="4" fill="#ffffff" stroke="#d0d5dd" stroke-width="1"/>
  <text x="872" y="176" font-size="11" fill="#1e293b">Base64  ▾</text>

  <!-- 密钥输入行 -->
  <rect x="276" y="200" width="888" height="44" rx="8" fill="#f8fafc"/>
  <text x="292" y="227" font-size="12" fill="#64748b" font-weight="500">密钥 (Key)</text>
  <rect x="370" y="210" width="560" height="26" rx="4" fill="#ffffff" stroke="#d0d5dd" stroke-width="1"/>
  <text x="382" y="228" font-size="11" fill="#1e293b" font-family="'Consolas', monospace">a3f8b2c1d4e5f6a78b9c0d1e2f3a4b5c</text>
  <!-- eye 按钮 -->
  <rect x="936" y="212" width="22" height="22" rx="4" fill="#f1f5f9" stroke="#e2e8f0" stroke-width="1"/>
  <text x="941" y="227" font-size="12" fill="#64748b">👁</text>
  <!-- cp 按钮 -->
  <rect x="962" y="212" width="22" height="22" rx="4" fill="#f1f5f9" stroke="#e2e8f0" stroke-width="1"/>
  <text x="967" y="228" font-size="11" fill="#64748b">cp</text>
  <!-- 随机生成 按钮 -->
  <rect x="992" y="210" width="76" height="26" rx="4" fill="url(#primaryBtn)"/>
  <text x="1002" y="228" font-size="11" fill="#ffffff">随机生成</text>

  <!-- IV 输入行 -->
  <rect x="276" y="250" width="888" height="44" rx="8" fill="#f8fafc"/>
  <text x="292" y="277" font-size="12" fill="#64748b" font-weight="500">IV (向量)</text>
  <rect x="370" y="260" width="560" height="26" rx="4" fill="#ffffff" stroke="#d0d5dd" stroke-width="1"/>
  <text x="382" y="278" font-size="11" fill="#1e293b" font-family="'Consolas', monospace">7b8c9d0e1f2a3b4c5d6e7f8a9b0c1d2e</text>
  <!-- eye 按钮 -->
  <rect x="936" y="262" width="22" height="22" rx="4" fill="#f1f5f9" stroke="#e2e8f0" stroke-width="1"/>
  <text x="941" y="277" font-size="12" fill="#64748b">👁</text>
  <!-- cp 按钮 -->
  <rect x="962" y="262" width="22" height="22" rx="4" fill="#f1f5f9" stroke="#e2e8f0" stroke-width="1"/>
  <text x="967" y="278" font-size="11" fill="#64748b">cp</text>
  <!-- 随机生成 按钮 -->
  <rect x="992" y="260" width="76" height="26" rx="4" fill="url(#primaryBtn)"/>
  <text x="1002" y="278" font-size="11" fill="#ffffff">随机生成</text>

  <!-- 分割线 -->
  <line x1="276" y1="300" x2="1164" y2="300" stroke="#e2e8f0" stroke-width="1"/>

  <!-- 左右分栏容器 -->
  <!-- 左侧: 输入(明文) -->
  <rect x="276" y="306" width="436" height="26" fill="#f8fafc"/>
  <text x="292" y="323" font-size="12" fill="#64748b" font-weight="500">输入（明文）</text>

  <rect x="276" y="332" width="436" height="230" fill="#ffffff" stroke="#e2e8f0" stroke-width="1"/>
  <rect x="276" y="332" width="30" height="230" fill="#f8fafc"/>
  <text x="284" y="356" font-size="10" fill="#cbd5e1" font-family="'Consolas', monospace">1</text>
  <text x="284" y="379" font-size="10" fill="#cbd5e1" font-family="'Consolas', monospace">2</text>
  <text x="284" y="402" font-size="10" fill="#cbd5e1" font-family="'Consolas', monospace">3</text>
  <text x="284" y="425" font-size="10" fill="#cbd5e1" font-family="'Consolas', monospace">4</text>
  <text x="284" y="448" font-size="10" fill="#cbd5e1" font-family="'Consolas', monospace">5</text>
  <text x="284" y="471" font-size="10" fill="#cbd5e1" font-family="'Consolas', monospace">6</text>
  <text x="284" y="494" font-size="10" fill="#cbd5e1" font-family="'Consolas', monospace">7</text>
  <text x="284" y="517" font-size="10" fill="#cbd5e1" font-family="'Consolas', monospace">8</text>
  <line x1="306" y1="332" x2="306" y2="562" stroke="#f1f5f9" stroke-width="1"/>
  <text x="316" y="356" font-size="13" fill="#1e293b" font-family="'Consolas', monospace">Hello World 你好世界</text>
  <text x="316" y="379" font-size="13" fill="#94a3b8" font-family="'Consolas', monospace">这是一段AES加密测试文本</text>

  <!-- 中间交换按钮 -->
  <rect x="696" y="420" width="60" height="28" rx="14" fill="url(#primaryBtn)"/>
  <text x="710" y="438" font-size="11" fill="#ffffff">交换 ⇅</text>

  <!-- 右侧: 输出(密文) -->
  <rect x="740" y="306" width="424" height="26" fill="#f8fafc"/>
  <text x="756" y="323" font-size="12" fill="#64748b" font-weight="500">输出（密文）</text>
  <rect x="1096" y="310" width="60" height="20" rx="4" fill="url(#primaryBtn)"/>
  <text x="1112" y="324" font-size="10" fill="#ffffff">复制</text>
  <rect x="1158" y="310" width="60" height="20" rx="4" fill="#ffffff" stroke="#e2e8f0" stroke-width="1"/>
  <text x="1172" y="324" font-size="10" fill="#64748b">下载</text>

  <rect x="740" y="332" width="424" height="230" fill="#f8faff" stroke="#e2e8f0" stroke-width="1"/>
  <rect x="740" y="332" width="30" height="230" fill="#f1f5f9"/>
  <text x="748" y="356" font-size="10" fill="#cbd5e1" font-family="'Consolas', monospace">1</text>
  <text x="748" y="379" font-size="10" fill="#cbd5e1" font-family="'Consolas', monospace">2</text>
  <text x="748" y="402" font-size="10" fill="#cbd5e1" font-family="'Consolas', monospace">3</text>
  <text x="748" y="425" font-size="10" fill="#cbd5e1" font-family="'Consolas', monospace">4</text>
  <text x="748" y="448" font-size="10" fill="#cbd5e1" font-family="'Consolas', monospace">5</text>
  <text x="748" y="471" font-size="10" fill="#cbd5e1" font-family="'Consolas', monospace">6</text>
  <text x="748" y="494" font-size="10" fill="#cbd5e1" font-family="'Consolas', monospace">7</text>
  <text x="748" y="517" font-size="10" fill="#cbd5e1" font-family="'Consolas', monospace">8</text>
  <line x1="770" y1="332" x2="770" y2="562" stroke="#f1f5f9" stroke-width="1"/>
  <text x="780" y="356" font-size="13" fill="#3b82f6" font-family="'Consolas', monospace">U2FsdGVkX19+y8J7a3BhQmNkZWZn</text>
  <text x="780" y="379" font-size="13" fill="#3b82f6" font-family="'Consolas', monospace">aWprbG1ub3BxcnN0dXZ3eHl6MDEy</text>
  <text x="780" y="402" font-size="13" fill="#3b82f6" font-family="'Consolas', monospace">MzQ1Njc4OWBjZGVmZ2hpamtsbW5v</text>
  <text x="780" y="425" font-size="13" fill="#3b82f6" font-family="'Consolas', monospace">cHFyc3R1dnd4eXowMTIzNDU2Nzg5</text>

  <!-- 分割线 -->
  <line x1="276" y1="572" x2="1164" y2="572" stroke="#e2e8f0" stroke-width="1"/>

  <!-- 底部历史记录 -->
  <rect x="276" y="582" width="888" height="190" rx="8" fill="#f8fafc" stroke="#e2e8f0" stroke-width="1"/>
  <text x="292" y="604" font-size="12" fill="#64748b" font-weight="500">历史记录（最近 5 条）</text>
  <text x="1132" y="604" font-size="11" fill="#cbd5e1">清除</text>

  <!-- 历史条目 1 -->
  <rect x="292" y="616" width="856" height="30" rx="6" fill="#ffffff" stroke="#e2e8f0" stroke-width="1"/>
  <rect x="292" y="616" width="3" height="30" rx="1" fill="#3b82f6"/>
  <text x="306" y="635" font-size="11" fill="#64748b">加密 | AES-CBC-256 | Hello World 你好世界</text>
  <text x="900" y="635" font-size="10" fill="#94a3b8">2 分钟前</text>
  <rect x="1088" y="622" width="44" height="18" rx="3" fill="#f1f5f9" stroke="#e2e8f0" stroke-width="1"/>
  <text x="1094" y="635" font-size="9" fill="#64748b">复制</text>

  <!-- 历史条目 2 -->
  <rect x="292" y="652" width="856" height="30" rx="6" fill="#ffffff" stroke="#e2e8f0" stroke-width="1"/>
  <text x="306" y="671" font-size="11" fill="#64748b">解密 | AES-CBC-256 | U2FsdGVkX19+y8J7a3...</text>
  <text x="900" y="671" font-size="10" fill="#94a3b8">15 分钟前</text>
  <rect x="1088" y="658" width="44" height="18" rx="3" fill="#f1f5f9" stroke="#e2e8f0" stroke-width="1"/>
  <text x="1094" y="671" font-size="9" fill="#64748b">复制</text>

  <!-- 历史条目 3 -->
  <rect x="292" y="688" width="856" height="30" rx="6" fill="#ffffff" stroke="#e2e8f0" stroke-width="1"/>
  <text x="306" y="707" font-size="11" fill="#64748b">加密 | AES-GCM-128 | test data 测试数据</text>
  <text x="900" y="707" font-size="10" fill="#94a3b8">1 小时前</text>
  <rect x="1088" y="694" width="44" height="18" rx="3" fill="#f1f5f9" stroke="#e2e8f0" stroke-width="1"/>
  <text x="1094" y="707" font-size="9" fill="#64748b">复制</text>

  <!-- 历史条目 4 -->
  <rect x="292" y="724" width="856" height="30" rx="6" fill="#ffffff" stroke="#e2e8f0" stroke-width="1"/>
  <text x="306" y="743" font-size="11" fill="#64748b">加密 | AES-CTR-256 | 敏感信息加密测试</text>
  <text x="900" y="743" font-size="10" fill="#94a3b8">2 小时前</text>
  <rect x="1088" y="730" width="44" height="18" rx="3" fill="#f1f5f9" stroke="#e2e8f0" stroke-width="1"/>
  <text x="1094" y="743" font-size="9" fill="#64748b">复制</text>

  <!-- 历史条目 5 -->
  <rect x="292" y="756" width="856" height="30" rx="6" fill="#ffffff" stroke="#e2e8f0" stroke-width="1"/>
  <text x="306" y="775" font-size="11" fill="#64748b">解密 | AES-ECB-128 | Base64 encoded text...</text>
  <text x="900" y="775" font-size="10" fill="#94a3b8">昨天</text>
  <rect x="1088" y="762" width="44" height="18" rx="3" fill="#f1f5f9" stroke="#e2e8f0" stroke-width="1"/>
  <text x="1094" y="775" font-size="9" fill="#64748b">复制</text>
</svg>
