<svg xmlns="http://www.w3.org/2000/svg" viewBox="0 0 1200 800" font-family="'Segoe UI', 'PingFang SC', 'Microsoft YaHei', sans-serif">
  <defs>
    <linearGradient id="sidebarBg" x1="0" y1="0" x2="1" y2="0">
      <stop offset="0%" stop-color="#f7f8fa"/>
      <stop offset="100%" stop-color="#ffffff"/>
    </linearGradient>
    <linearGradient id="primaryBtn" x1="0" y1="0" x2="1" y2="1">
      <stop offset="0%" stop-color="#3b82f6"/>
      <stop offset="100%" stop-color="#2563eb"/>
    </linearGradient>
  </defs>

  <!-- 外框 -->
  <rect x="0" y="0" width="1200" height="800" rx="8" fill="#ffffff" stroke="#d8dce6" stroke-width="1"/>

  <!-- 标题栏 -->
  <rect x="0" y="0" width="1200" height="40" rx="8" fill="#ffffff"/>
  <rect x="0" y="20" width="1200" height="20" fill="#ffffff"/>
  <line x1="0" y1="40" x2="1200" y2="40" stroke="#e8eaef" stroke-width="1"/>
  <circle cx="20" cy="20" r="6" fill="#ff5f57"/>
  <circle cx="40" cy="20" r="6" fill="#febc2e"/>
  <circle cx="60" cy="20" r="6" fill="#28c840"/>
  <rect x="80" y="9" width="22" height="22" rx="5" fill="url(#primaryBtn)"/>
  <text x="85" y="24" font-size="11" fill="#ffffff" font-weight="bold">DT</text>
  <text x="112" y="25" font-size="14" fill="#1e293b" font-weight="600">DevToolkit</text>
  <text x="200" y="25" font-size="11" fill="#94a3b8">v1.0.0</text>
  <text x="1134" y="25" font-size="14" fill="#94a3b8">-</text>
  <rect x="1156" y="12" width="10" height="10" fill="none" stroke="#94a3b8" stroke-width="1.2" rx="1"/>
  <text x="1178" y="26" font-size="16" fill="#94a3b8">x</text>

  <!-- 侧边栏背景 -->
  <rect x="0" y="40" width="240" height="760" fill="url(#sidebarBg)"/>
  <line x1="240" y1="40" x2="240" y2="800" stroke="#e8eaef" stroke-width="1"/>
  <rect x="222" y="48" width="14" height="14" rx="3" fill="#f1f5f9" stroke="#d0d5dd" stroke-width="1"/>
  <text x="224" y="59" font-size="9" fill="#64748b">&lt;</text>

  <!-- 搜索框 -->
  <rect x="12" y="52" width="204" height="34" rx="6" fill="#ffffff" stroke="#d0d5dd" stroke-width="1"/>
  <text x="26" y="74" font-size="12" fill="#94a3b8">搜索工具...</text>

  <!-- 字符编码 分类 -->
  <text x="16" y="112" font-size="11" fill="#94a3b8" font-weight="600" letter-spacing="0.5">字符编码</text>
  <rect x="8" y="120" width="224" height="32" rx="6" fill="transparent"/>
  <text x="24" y="140" font-size="12" fill="#475569">Hex 转换</text>
  <rect x="8" y="154" width="224" height="32" rx="6" fill="transparent"/>
  <text x="24" y="174" font-size="12" fill="#475569">Base64 编解码</text>
  <rect x="8" y="188" width="224" height="32" rx="6" fill="transparent"/>
  <text x="24" y="208" font-size="12" fill="#475569">ASCII 转换</text>
  <rect x="8" y="222" width="224" height="32" rx="6" fill="transparent"/>
  <text x="24" y="242" font-size="12" fill="#475569">URL 编解码</text>
  <rect x="8" y="256" width="224" height="32" rx="6" fill="transparent"/>
  <text x="24" y="276" font-size="12" fill="#475569">Unicode 编解码</text>

  <!-- JSON 工具 分类 -->
  <text x="16" y="312" font-size="11" fill="#94a3b8" font-weight="600" letter-spacing="0.5">JSON 工具</text>
  <rect x="8" y="320" width="224" height="32" rx="6" fill="transparent"/>
  <text x="24" y="340" font-size="12" fill="#475569">Pretty 格式化</text>
  <rect x="8" y="354" width="224" height="32" rx="6" fill="transparent"/>
  <text x="24" y="374" font-size="12" fill="#475569">JSON 压缩</text>
  <rect x="8" y="388" width="224" height="32" rx="6" fill="transparent"/>
  <text x="24" y="408" font-size="12" fill="#475569">反序列化</text>
  <rect x="8" y="422" width="224" height="32" rx="6" fill="transparent"/>
  <text x="24" y="442" font-size="12" fill="#475569">JSONPath 查询</text>

  <!-- 加密解密 分类 -->
  <text x="16" y="478" font-size="11" fill="#94a3b8" font-weight="600" letter-spacing="0.5">加密解密</text>
  <rect x="8" y="486" width="224" height="32" rx="6" fill="transparent"/>
  <text x="24" y="506" font-size="12" fill="#475569">AES 加密/解密</text>
  <rect x="8" y="522" width="224" height="32" rx="6" fill="transparent"/>
  <text x="24" y="542" font-size="12" fill="#475569">DES / 3DES</text>
  <rect x="8" y="556" width="224" height="32" rx="6" fill="transparent"/>
  <text x="24" y="576" font-size="12" fill="#475569">RSA 工具</text>
  <rect x="8" y="590" width="224" height="32" rx="6" fill="transparent"/>
  <text x="24" y="610" font-size="12" fill="#475569">哈希摘要</text>
  <rect x="8" y="624" width="224" height="32" rx="6" fill="transparent"/>
  <text x="24" y="644" font-size="12" fill="#475569">密钥工具</text>

  <!-- 其他工具 分类 -->
  <text x="16" y="680" font-size="11" fill="#94a3b8" font-weight="600" letter-spacing="0.5">其他工具</text>
  <!-- 二维码 选中态 -->
  <rect x="8" y="688" width="224" height="32" rx="6" fill="#eff6ff"/>
  <rect x="8" y="688" width="3" height="32" rx="1" fill="#3b82f6"/>
  <text x="24" y="708" font-size="12" fill="#2563eb" font-weight="500">二维码</text>
  <rect x="8" y="722" width="224" height="32" rx="6" fill="transparent"/>
  <text x="24" y="742" font-size="12" fill="#475569">HTTP Client</text>
  <rect x="8" y="756" width="224" height="32" rx="6" fill="transparent"/>
  <text x="24" y="776" font-size="12" fill="#475569">Nginx</text>

  <!-- 内容区背景 -->
  <rect x="240" y="40" width="960" height="760" fill="#ffffff"/>

  <!-- 面包屑导航 -->
  <text x="268" y="70" font-size="12" fill="#94a3b8">其他工具</text>
  <text x="334" y="70" font-size="12" fill="#cbd5e1">/</text>
  <text x="346" y="70" font-size="12" fill="#1e293b" font-weight="500">二维码工具</text>

  <!-- 主面板卡片 -->
  <rect x="256" y="88" width="928" height="692" rx="10" fill="#ffffff" stroke="#e2e8f0" stroke-width="1"/>

  <!-- Tab 切换: 生成(选中) | 解析 -->
  <rect x="276" y="104" width="80" height="32" rx="6" fill="url(#primaryBtn)"/>
  <text x="302" y="124" font-size="13" fill="#ffffff" font-weight="500">生成</text>
  <rect x="364" y="104" width="80" height="32" rx="6" fill="#f1f5f9" stroke="#e2e8f0" stroke-width="1"/>
  <text x="390" y="124" font-size="13" fill="#64748b">解析</text>

  <!-- 生成 Tab 内容 -->
  <!-- 输入区标签 -->
  <text x="280" y="164" font-size="13" fill="#1e293b" font-weight="500">文本/URL</text>

  <!-- 输入框 -->
  <rect x="280" y="174" width="888" height="80" rx="8" fill="#ffffff" stroke="#d0d5dd" stroke-width="1"/>
  <text x="296" y="200" font-size="13" fill="#94a3b8">输入文本或URL...</text>

  <!-- 配置行 -->
  <rect x="280" y="264" width="888" height="44" rx="8" fill="#f8fafc"/>

  <!-- 尺寸下拉 -->
  <text x="296" y="291" font-size="12" fill="#64748b">尺寸</text>
  <rect x="332" y="274" width="120" height="26" rx="4" fill="#ffffff" stroke="#d0d5dd" stroke-width="1"/>
  <text x="344" y="292" font-size="11" fill="#1e293b">256 x 256  ▾</text>

  <!-- 容错级别 -->
  <text x="472" y="291" font-size="12" fill="#64748b">容错级别</text>
  <rect x="540" y="274" width="80" height="26" rx="4" fill="#ffffff" stroke="#d0d5dd" stroke-width="1"/>
  <text x="552" y="292" font-size="11" fill="#1e293b">M  ▾</text>

  <!-- 生成按钮 -->
  <rect x="1040" y="272" width="116" height="30" rx="6" fill="url(#primaryBtn)"/>
  <text x="1076" y="292" font-size="13" fill="#ffffff" font-weight="500">生成</text>

  <!-- 二维码预览区 -->
  <rect x="540" y="330" width="360" height="320" rx="10" fill="#f8fafc" stroke="#e2e8f0" stroke-width="1"/>
  <!-- 二维码占位图示 -->
  <rect x="620" y="360" width="200" height="200" rx="4" fill="#e2e8f0" stroke="#d0d5dd" stroke-width="1"/>
  <!-- 模拟二维码图案 -->
  <rect x="630" y="370" width="20" height="20" fill="#1e293b"/>
  <rect x="650" y="370" width="20" height="20" fill="#1e293b"/>
  <rect x="670" y="370" width="20" height="20" fill="#1e293b"/>
  <rect x="630" y="390" width="20" height="20" fill="#1e293b"/>
  <rect x="670" y="390" width="20" height="20" fill="#1e293b"/>
  <rect x="630" y="410" width="20" height="20" fill="#1e293b"/>
  <rect x="650" y="410" width="20" height="20" fill="#1e293b"/>
  <rect x="670" y="410" width="20" height="20" fill="#1e293b"/>
  <rect x="700" y="370" width="20" height="20" fill="#1e293b"/>
  <rect x="740" y="370" width="20" height="20" fill="#1e293b"/>
  <rect x="760" y="390" width="20" height="20" fill="#1e293b"/>
  <rect x="700" y="410" width="20" height="20" fill="#1e293b"/>
  <rect x="720" y="430" width="20" height="20" fill="#1e293b"/>
  <rect x="760" y="430" width="20" height="20" fill="#1e293b"/>
  <rect x="630" y="450" width="20" height="20" fill="#1e293b"/>
  <rect x="670" y="450" width="20" height="20" fill="#1e293b"/>
  <rect x="720" y="470" width="20" height="20" fill="#1e293b"/>
  <rect x="740" y="490" width="20" height="20" fill="#1e293b"/>
  <rect x="630" y="510" width="20" height="20" fill="#1e293b"/>
  <rect x="650" y="510" width="20" height="20" fill="#1e293b"/>
  <rect x="670" y="510" width="20" height="20" fill="#1e293b"/>
  <rect x="630" y="530" width="20" height="20" fill="#1e293b"/>
  <rect x="670" y="530" width="20" height="20" fill="#1e293b"/>
  <rect x="630" y="510" width="20" height="20" fill="#1e293b"/>
  <rect x="650" y="530" width="20" height="20" fill="#1e293b"/>
  <rect x="670" y="530" width="20" height="20" fill="#1e293b"/>
  <text x="644" y="576" font-size="12" fill="#94a3b8">二维码预览</text>

  <!-- 操作按钮行 -->
  <!-- 下载PNG按钮 -->
  <rect x="600" y="664" width="120" height="36" rx="6" fill="url(#primaryBtn)"/>
  <text x="630" y="686" font-size="13" fill="#ffffff" font-weight="500">下载PNG</text>

  <!-- 复制到剪贴板按钮 -->
  <rect x="732" y="664" width="140" height="36" rx="6" fill="#ffffff" stroke="#d0d5dd" stroke-width="1"/>
  <text x="756" y="686" font-size="13" fill="#475569">复制到剪贴板</text>

  <!-- 解析 Tab 内容 -->
  <!-- 拖拽区域 -->
  <rect x="280" y="330" width="888" height="220" rx="10" fill="#f8fafc" stroke="#d0d5dd" stroke-width="1.5" stroke-dasharray="8,4"/>
  <!-- upload icon placeholder -->
  <rect x="700" y="380" width="48" height="48" rx="8" fill="#e2e8f0"/>
  <text x="712" y="412" font-size="22" fill="#94a3b8">+</text>
  <text x="724" y="454" font-size="14" fill="#64748b" text-anchor="middle" font-weight="500">拖拽二维码图片到这里</text>
  <text x="724" y="480" font-size="12" fill="#94a3b8" text-anchor="middle">或 Ctrl+V 粘贴截图</text>
  <!-- 选择文件 button -->
  <rect x="636" y="498" width="88" height="34" rx="6" fill="url(#primaryBtn)"/>
  <text x="652" y="520" font-size="13" fill="#ffffff" font-weight="500">选择文件</text>

  <!-- 解析结果文本框 -->
  <rect x="280" y="570" width="888" height="120" rx="8" fill="#ffffff" stroke="#e2e8f0" stroke-width="1"/>
  <rect x="280" y="570" width="888" height="32" rx="8" fill="#f8fafc"/>
  <rect x="280" y="594" width="888" height="8" fill="#f8fafc"/>
  <text x="296" y="591" font-size="12" fill="#1e293b" font-weight="600">解析结果</text>
  <rect x="1096" y="578" width="56" height="22" rx="4" fill="#ffffff" stroke="#d0d5dd" stroke-width="1"/>
  <text x="1106" y="593" font-size="10" fill="#475569">复制</text>
  <text x="296" y="628" font-size="13" fill="#1e293b" font-family="'Consolas',monospace">https://example.com/qr-code-data</text>
  <text x="296" y="652" font-size="11" fill="#94a3b8">二维码类型: URL | 版本: 3 | 纠错等级: M</text>
  <!-- 结果区滚动条 -->
  <rect x="1162" y="602" width="6" height="88" rx="3" fill="#f1f5f9"/>
  <rect x="1162" y="610" width="6" height="35" rx="3" fill="#cbd5e1"/>

  <!-- 输入框滚动条 -->
  <rect x="1162" y="174" width="6" height="80" rx="3" fill="#f1f5f9"/>
  <rect x="1162" y="182" width="6" height="32" rx="3" fill="#cbd5e1"/>
</svg>
