<svg xmlns="http://www.w3.org/2000/svg" viewBox="0 0 1200 800" font-family="'Segoe UI', 'PingFang SC', 'Microsoft YaHei', sans-serif">
  <defs>
    <linearGradient id="sidebarBg" x1="0" y1="0" x2="1" y2="0">
      <stop offset="0%" stop-color="#f7f8fa"/>
      <stop offset="100%" stop-color="#ffffff"/>
    </linearGradient>
    <linearGradient id="primaryBtn" x1="0" y1="0" x2="1" y2="1">
      <stop offset="0%" stop-color="#3b82f6"/>
      <stop offset="100%" stop-color="#2563eb"/>
    </linearGradient>
  </defs>

  <!-- 外框 -->
  <rect x="0" y="0" width="1200" height="800" rx="8" fill="#ffffff" stroke="#d8dce6" stroke-width="1"/>

  <!-- 标题栏 -->
  <rect x="0" y="0" width="1200" height="40" rx="8" fill="#ffffff"/>
  <rect x="0" y="20" width="1200" height="20" fill="#ffffff"/>
  <line x1="0" y1="40" x2="1200" y2="40" stroke="#e8eaef" stroke-width="1"/>
  <circle cx="20" cy="20" r="6" fill="#ff5f57"/>
  <circle cx="40" cy="20" r="6" fill="#febc2e"/>
  <circle cx="60" cy="20" r="6" fill="#28c840"/>
  <rect x="80" y="9" width="22" height="22" rx="5" fill="url(#primaryBtn)"/>
  <text x="85" y="24" font-size="11" fill="#ffffff" font-weight="bold">DT</text>
  <text x="112" y="25" font-size="14" fill="#1e293b" font-weight="600">DevToolkit</text>
  <text x="200" y="25" font-size="11" fill="#94a3b8">v1.0.0</text>
  <text x="1134" y="25" font-size="14" fill="#94a3b8">-</text>
  <rect x="1156" y="12" width="10" height="10" fill="none" stroke="#94a3b8" stroke-width="1.2" rx="1"/>
  <text x="1178" y="26" font-size="16" fill="#94a3b8">x</text>

  <!-- 侧边栏 -->
  <rect x="0" y="40" width="240" height="760" fill="url(#sidebarBg)"/>
  <line x1="240" y1="40" x2="240" y2="800" stroke="#e8eaef" stroke-width="1"/>
  <rect x="222" y="48" width="14" height="14" rx="3" fill="#f1f5f9" stroke="#d0d5dd" stroke-width="1"/>
  <text x="224" y="59" font-size="9" fill="#64748b">&lt;</text>

  <!-- 搜索框 -->
  <rect x="12" y="52" width="204" height="34" rx="6" fill="#ffffff" stroke="#d0d5dd" stroke-width="1"/>
  <text x="26" y="74" font-size="12" fill="#94a3b8">搜索工具...</text>

  <!-- 字符编码 分类 -->
  <text x="16" y="112" font-size="11" fill="#94a3b8" font-weight="600" letter-spacing="0.5">字符编码</text>
  <rect x="8" y="120" width="224" height="32" rx="6" fill="transparent"/>
  <text x="24" y="140" font-size="12" fill="#475569">Hex 转换</text>
  <rect x="8" y="154" width="224" height="32" rx="6" fill="transparent"/>
  <text x="24" y="174" font-size="12" fill="#475569">Base64 编解码</text>
  <rect x="8" y="188" width="224" height="32" rx="6" fill="transparent"/>
  <text x="24" y="208" font-size="12" fill="#475569">URL 编解码</text>

  <!-- 其他工具 分类 -->
  <text x="16" y="250" font-size="11" fill="#94a3b8" font-weight="600" letter-spacing="0.5">其他工具</text>
  <rect x="8" y="258" width="224" height="32" rx="6" fill="transparent"/>
  <text x="24" y="278" font-size="12" fill="#475569">时间戳转换</text>

  <!-- Cron表达式 选中 -->
  <rect x="8" y="292" width="224" height="32" rx="6" fill="#eff6ff"/>
  <rect x="8" y="292" width="3" height="32" rx="1" fill="#3b82f6"/>
  <text x="24" y="312" font-size="12" fill="#2563eb" font-weight="500">Cron 表达式</text>

  <rect x="8" y="326" width="224" height="32" rx="6" fill="transparent"/>
  <text x="24" y="346" font-size="12" fill="#475569">正则调试</text>
  <rect x="8" y="360" width="224" height="32" rx="6" fill="transparent"/>
  <text x="24" y="380" font-size="12" fill="#475569">Grok 调试</text>

  <!-- 数字计算 分类 -->
  <text x="16" y="418" font-size="11" fill="#94a3b8" font-weight="600" letter-spacing="0.5">数字计算</text>
  <rect x="8" y="426" width="224" height="32" rx="6" fill="transparent"/>
  <text x="24" y="446" font-size="12" fill="#475569">进制转换</text>
  <rect x="8" y="460" width="224" height="32" rx="6" fill="transparent"/>
  <text x="24" y="480" font-size="12" fill="#475569">公式求值</text>

  <!-- 内容区 -->
  <rect x="240" y="40" width="960" height="760" fill="#ffffff"/>

  <!-- 面包屑 -->
  <text x="268" y="70" font-size="12" fill="#94a3b8">Cron 表达式</text>

  <!-- ========== 左侧: 可视化配置 (50%) ========== -->
  <rect x="256" y="88" width="460" height="696" rx="10" fill="#ffffff" stroke="#e2e8f0" stroke-width="1"/>
  <text x="280" y="114" font-size="14" fill="#1e293b" font-weight="600">可视化配置</text>

  <!-- 7个标签页横排 -->
  <rect x="270" y="126" width="56" height="28" rx="4" fill="url(#primaryBtn)"/>
  <text x="284" y="144" font-size="11" fill="#ffffff" font-weight="500">秒</text>

  <rect x="330" y="126" width="56" height="28" rx="4" fill="#f1f5f9" stroke="#e2e8f0" stroke-width="1"/>
  <text x="344" y="144" font-size="11" fill="#64748b">分</text>

  <rect x="390" y="126" width="56" height="28" rx="4" fill="#f1f5f9" stroke="#e2e8f0" stroke-width="1"/>
  <text x="404" y="144" font-size="11" fill="#64748b">时</text>

  <rect x="450" y="126" width="56" height="28" rx="4" fill="#f1f5f9" stroke="#e2e8f0" stroke-width="1"/>
  <text x="464" y="144" font-size="11" fill="#64748b">日</text>

  <rect x="510" y="126" width="56" height="28" rx="4" fill="#f1f5f9" stroke="#e2e8f0" stroke-width="1"/>
  <text x="524" y="144" font-size="11" fill="#64748b">月</text>

  <rect x="570" y="126" width="56" height="28" rx="4" fill="#f1f5f9" stroke="#e2e8f0" stroke-width="1"/>
  <text x="584" y="144" font-size="11" fill="#64748b">周</text>

  <rect x="630" y="126" width="56" height="28" rx="4" fill="#f1f5f9" stroke="#e2e8f0" stroke-width="1"/>
  <text x="644" y="144" font-size="11" fill="#64748b">年</text>

  <!-- "秒"标签页内容 -->
  <!-- 每一秒 单选 -->
  <rect x="270" y="164" width="432" height="32" rx="4" fill="#f8fafc"/>
  <circle cx="286" cy="180" r="7" fill="#3b82f6"/>
  <circle cx="286" cy="180" r="3" fill="#ffffff"/>
  <text x="300" y="184" font-size="12" fill="#1e293b">每一秒</text>

  <!-- 周期 -->
  <rect x="270" y="200" width="432" height="32" rx="4" fill="transparent"/>
  <circle cx="286" cy="216" r="7" fill="#ffffff" stroke="#d0d5dd" stroke-width="1"/>
  <text x="300" y="220" font-size="12" fill="#475569">周期：从</text>
  <rect x="356" y="204" width="44" height="24" rx="4" fill="#ffffff" stroke="#d0d5dd" stroke-width="1"/>
  <text x="368" y="221" font-size="11" fill="#1e293b">0</text>
  <text x="408" y="220" font-size="12" fill="#475569">开始每</text>
  <rect x="454" y="204" width="44" height="24" rx="4" fill="#ffffff" stroke="#d0d5dd" stroke-width="1"/>
  <text x="466" y="221" font-size="11" fill="#1e293b">5</text>
  <text x="506" y="220" font-size="12" fill="#475569">秒</text>

  <!-- 范围 -->
  <rect x="270" y="236" width="432" height="32" rx="4" fill="transparent"/>
  <circle cx="286" cy="252" r="7" fill="#ffffff" stroke="#d0d5dd" stroke-width="1"/>
  <text x="300" y="256" font-size="12" fill="#475569">范围：从</text>
  <rect x="356" y="240" width="44" height="24" rx="4" fill="#ffffff" stroke="#d0d5dd" stroke-width="1"/>
  <text x="368" y="257" font-size="11" fill="#1e293b">0</text>
  <text x="408" y="256" font-size="12" fill="#475569">到</text>
  <rect x="430" y="240" width="44" height="24" rx="4" fill="#ffffff" stroke="#d0d5dd" stroke-width="1"/>
  <text x="442" y="257" font-size="11" fill="#1e293b">30</text>

  <!-- 指定: 复选框网格 (秒: 0-59, 6行10列) -->
  <rect x="270" y="272" width="432" height="32" rx="4" fill="transparent"/>
  <circle cx="286" cy="288" r="7" fill="#ffffff" stroke="#d0d5dd" stroke-width="1"/>
  <text x="300" y="292" font-size="12" fill="#475569">指定：</text>

  <!-- 复选框网格 6行10列 (显示部分) -->
  <rect x="280" y="310" width="410" height="180" rx="4" fill="#f8fafc" stroke="#e2e8f0" stroke-width="1"/>
  <!-- Row 1: 0-9 -->
  <rect x="290" y="318" width="30" height="22" rx="3" fill="#eff6ff" stroke="#3b82f6" stroke-width="1"/>
  <text x="300" y="333" font-size="10" fill="#3b82f6">0</text>
  <rect x="326" y="318" width="30" height="22" rx="3" fill="#eff6ff" stroke="#3b82f6" stroke-width="1"/>
  <text x="336" y="333" font-size="10" fill="#3b82f6">1</text>
  <rect x="362" y="318" width="30" height="22" rx="3" fill="#ffffff" stroke="#d0d5dd" stroke-width="1"/>
  <text x="372" y="333" font-size="10" fill="#475569">2</text>
  <rect x="398" y="318" width="30" height="22" rx="3" fill="#ffffff" stroke="#d0d5dd" stroke-width="1"/>
  <text x="408" y="333" font-size="10" fill="#475569">3</text>
  <rect x="434" y="318" width="30" height="22" rx="3" fill="#ffffff" stroke="#d0d5dd" stroke-width="1"/>
  <text x="444" y="333" font-size="10" fill="#475569">4</text>
  <rect x="470" y="318" width="30" height="22" rx="3" fill="#eff6ff" stroke="#3b82f6" stroke-width="1"/>
  <text x="480" y="333" font-size="10" fill="#3b82f6">5</text>
  <rect x="506" y="318" width="30" height="22" rx="3" fill="#ffffff" stroke="#d0d5dd" stroke-width="1"/>
  <text x="516" y="333" font-size="10" fill="#475569">6</text>
  <rect x="542" y="318" width="30" height="22" rx="3" fill="#ffffff" stroke="#d0d5dd" stroke-width="1"/>
  <text x="552" y="333" font-size="10" fill="#475569">7</text>
  <rect x="578" y="318" width="30" height="22" rx="3" fill="#ffffff" stroke="#d0d5dd" stroke-width="1"/>
  <text x="588" y="333" font-size="10" fill="#475569">8</text>
  <rect x="614" y="318" width="30" height="22" rx="3" fill="#ffffff" stroke="#d0d5dd" stroke-width="1"/>
  <text x="624" y="333" font-size="10" fill="#475569">9</text>

  <!-- Row 2: 10-19 -->
  <rect x="290" y="346" width="30" height="22" rx="3" fill="#ffffff" stroke="#d0d5dd" stroke-width="1"/>
  <text x="296" y="361" font-size="10" fill="#475569">10</text>
  <rect x="326" y="346" width="30" height="22" rx="3" fill="#ffffff" stroke="#d0d5dd" stroke-width="1"/>
  <text x="332" y="361" font-size="10" fill="#475569">11</text>
  <rect x="362" y="346" width="30" height="22" rx="3" fill="#ffffff" stroke="#d0d5dd" stroke-width="1"/>
  <text x="368" y="361" font-size="10" fill="#475569">12</text>
  <rect x="398" y="346" width="30" height="22" rx="3" fill="#ffffff" stroke="#d0d5dd" stroke-width="1"/>
  <text x="404" y="361" font-size="10" fill="#475569">13</text>
  <rect x="434" y="346" width="30" height="22" rx="3" fill="#ffffff" stroke="#d0d5dd" stroke-width="1"/>
  <text x="440" y="361" font-size="10" fill="#475569">14</text>
  <rect x="470" y="346" width="30" height="22" rx="3" fill="#ffffff" stroke="#d0d5dd" stroke-width="1"/>
  <text x="476" y="361" font-size="10" fill="#475569">15</text>
  <rect x="506" y="346" width="30" height="22" rx="3" fill="#ffffff" stroke="#d0d5dd" stroke-width="1"/>
  <text x="512" y="361" font-size="10" fill="#475569">16</text>
  <rect x="542" y="346" width="30" height="22" rx="3" fill="#ffffff" stroke="#d0d5dd" stroke-width="1"/>
  <text x="548" y="361" font-size="10" fill="#475569">17</text>
  <rect x="578" y="346" width="30" height="22" rx="3" fill="#ffffff" stroke="#d0d5dd" stroke-width="1"/>
  <text x="584" y="361" font-size="10" fill="#475569">18</text>
  <rect x="614" y="346" width="30" height="22" rx="3" fill="#ffffff" stroke="#d0d5dd" stroke-width="1"/>
  <text x="620" y="361" font-size="10" fill="#475569">19</text>

  <!-- Row 3: 20-29 -->
  <rect x="290" y="374" width="30" height="22" rx="3" fill="#eff6ff" stroke="#3b82f6" stroke-width="1"/>
  <text x="296" y="389" font-size="10" fill="#3b82f6">20</text>
  <rect x="326" y="374" width="30" height="22" rx="3" fill="#ffffff" stroke="#d0d5dd" stroke-width="1"/>
  <text x="332" y="389" font-size="10" fill="#475569">21</text>
  <rect x="362" y="374" width="30" height="22" rx="3" fill="#ffffff" stroke="#d0d5dd" stroke-width="1"/>
  <text x="368" y="389" font-size="10" fill="#475569">22</text>
  <rect x="398" y="374" width="30" height="22" rx="3" fill="#ffffff" stroke="#d0d5dd" stroke-width="1"/>
  <text x="404" y="389" font-size="10" fill="#475569">23</text>
  <rect x="434" y="374" width="30" height="22" rx="3" fill="#ffffff" stroke="#d0d5dd" stroke-width="1"/>
  <text x="440" y="389" font-size="10" fill="#475569">24</text>
  <rect x="470" y="374" width="30" height="22" rx="3" fill="#eff6ff" stroke="#3b82f6" stroke-width="1"/>
  <text x="476" y="389" font-size="10" fill="#3b82f6">25</text>
  <rect x="506" y="374" width="30" height="22" rx="3" fill="#ffffff" stroke="#d0d5dd" stroke-width="1"/>
  <text x="512" y="389" font-size="10" fill="#475569">26</text>
  <rect x="542" y="374" width="30" height="22" rx="3" fill="#ffffff" stroke="#d0d5dd" stroke-width="1"/>
  <text x="548" y="389" font-size="10" fill="#475569">27</text>
  <rect x="578" y="374" width="30" height="22" rx="3" fill="#ffffff" stroke="#d0d5dd" stroke-width="1"/>
  <text x="584" y="389" font-size="10" fill="#475569">28</text>
  <rect x="614" y="374" width="30" height="22" rx="3" fill="#ffffff" stroke="#d0d5dd" stroke-width="1"/>
  <text x="620" y="389" font-size="10" fill="#475569">29</text>

  <!-- Row 4: 30-39 (partial) -->
  <rect x="290" y="402" width="30" height="22" rx="3" fill="#eff6ff" stroke="#3b82f6" stroke-width="1"/>
  <text x="296" y="417" font-size="10" fill="#3b82f6">30</text>
  <rect x="326" y="402" width="30" height="22" rx="3" fill="#ffffff" stroke="#d0d5dd" stroke-width="1"/>
  <text x="332" y="417" font-size="10" fill="#475569">31</text>
  <rect x="362" y="402" width="30" height="22" rx="3" fill="#ffffff" stroke="#d0d5dd" stroke-width="1"/>
  <text x="368" y="417" font-size="10" fill="#475569">32</text>
  <rect x="398" y="402" width="30" height="22" rx="3" fill="#ffffff" stroke="#d0d5dd" stroke-width="1"/>
  <text x="404" y="417" font-size="10" fill="#475569">33</text>
  <rect x="434" y="402" width="30" height="22" rx="3" fill="#ffffff" stroke="#d0d5dd" stroke-width="1"/>
  <text x="440" y="417" font-size="10" fill="#475569">34</text>
  <rect x="470" y="402" width="30" height="22" rx="3" fill="#eff6ff" stroke="#3b82f6" stroke-width="1"/>
  <text x="476" y="417" font-size="10" fill="#3b82f6">35</text>
  <rect x="506" y="402" width="30" height="22" rx="3" fill="#ffffff" stroke="#d0d5dd" stroke-width="1"/>
  <text x="512" y="417" font-size="10" fill="#475569">36</text>
  <rect x="542" y="402" width="30" height="22" rx="3" fill="#ffffff" stroke="#d0d5dd" stroke-width="1"/>
  <text x="548" y="417" font-size="10" fill="#475569">37</text>
  <rect x="578" y="402" width="30" height="22" rx="3" fill="#ffffff" stroke="#d0d5dd" stroke-width="1"/>
  <text x="584" y="417" font-size="10" fill="#475569">38</text>
  <rect x="614" y="402" width="30" height="22" rx="3" fill="#ffffff" stroke="#d0d5dd" stroke-width="1"/>
  <text x="620" y="417" font-size="10" fill="#475569">39</text>

  <!-- Rows 5-6 truncated hint -->
  <text x="290" y="450" font-size="10" fill="#94a3b8">40-59 ...（共6行）</text>

  <!-- ========== 右侧: 表达式区 (50%) ========== -->
  <rect x="728" y="88" width="456" height="696" rx="10" fill="#ffffff" stroke="#e2e8f0" stroke-width="1"/>
  <text x="752" y="114" font-size="14" fill="#1e293b" font-weight="600">Cron 表达式</text>

  <!-- 7个字段分开输入框 -->
  <text x="752" y="142" font-size="11" fill="#64748b">秒</text>
  <rect x="778" y="128" width="50" height="26" rx="4" fill="#ffffff" stroke="#d0d5dd" stroke-width="1"/>
  <text x="786" y="146" font-size="11" fill="#1e293b" font-family="Consolas, monospace">0</text>

  <text x="838" y="142" font-size="11" fill="#64748b">分</text>
  <rect x="860" y="128" width="50" height="26" rx="4" fill="#ffffff" stroke="#d0d5dd" stroke-width="1"/>
  <text x="868" y="146" font-size="11" fill="#1e293b" font-family="Consolas, monospace">0/5</text>

  <text x="920" y="142" font-size="11" fill="#64748b">时</text>
  <rect x="942" y="128" width="50" height="26" rx="4" fill="#ffffff" stroke="#d0d5dd" stroke-width="1"/>
  <text x="950" y="146" font-size="11" fill="#1e293b" font-family="Consolas, monospace">*</text>

  <text x="1002" y="142" font-size="11" fill="#64748b">日</text>
  <rect x="1024" y="128" width="50" height="26" rx="4" fill="#ffffff" stroke="#d0d5dd" stroke-width="1"/>
  <text x="1032" y="146" font-size="11" fill="#1e293b" font-family="Consolas, monospace">*</text>

  <text x="1084" y="142" font-size="11" fill="#64748b">月</text>
  <rect x="1106" y="128" width="50" height="26" rx="4" fill="#ffffff" stroke="#d0d5dd" stroke-width="1"/>
  <text x="1114" y="146" font-size="11" fill="#1e293b" font-family="Consolas, monospace">*</text>

  <text x="1166" y="142" font-size="11" fill="#64748b">周</text>
  <rect x="778" y="158" width="50" height="26" rx="4" fill="#ffffff" stroke="#d0d5dd" stroke-width="1"/>
  <text x="786" y="176" font-size="11" fill="#1e293b" font-family="Consolas, monospace">?</text>

  <text x="838" y="176" font-size="11" fill="#64748b">年</text>
  <rect x="860" y="158" width="50" height="26" rx="4" fill="#ffffff" stroke="#d0d5dd" stroke-width="1"/>
  <text x="868" y="176" font-size="11" fill="#1e293b" font-family="Consolas, monospace">*</text>

  <!-- 完整表达式显示 -->
  <rect x="752" y="194" width="408" height="36" rx="6" fill="#f8faff" stroke="#e2e8f0" stroke-width="1"/>
  <text x="768" y="217" font-size="15" fill="#3b82f6" font-family="Consolas, monospace" font-weight="600">0 0/5 * * * ? *</text>

  <!-- 反解析到UI 按钮 -->
  <rect x="1000" y="240" width="120" height="30" rx="6" fill="url(#primaryBtn)"/>
  <text x="1016" y="260" font-size="12" fill="#ffffff" font-weight="500">反解析到UI</text>

  <!-- 自然语言描述 -->
  <rect x="752" y="282" width="408" height="56" rx="8" fill="#f8fafc" stroke="#e2e8f0" stroke-width="1"/>
  <text x="768" y="304" font-size="11" fill="#64748b" font-weight="500">中文说明</text>
  <text x="768" y="324" font-size="13" fill="#1e293b">每5分钟，在第0秒执行</text>

  <!-- 最近10次执行时间 -->
  <text x="752" y="364" font-size="13" fill="#1e293b" font-weight="600">最近执行时间</text>
  <rect x="752" y="374" width="408" height="210" rx="6" fill="#ffffff" stroke="#e2e8f0" stroke-width="1"/>
  <!-- 表头 -->
  <rect x="752" y="374" width="408" height="26" rx="6" fill="#f1f5f9"/>
  <rect x="752" y="390" width="408" height="10" fill="#f1f5f9"/>
  <text x="770" y="391" font-size="11" fill="#64748b" font-weight="600">序号</text>
  <text x="814" y="391" font-size="11" fill="#64748b" font-weight="600">执行时间</text>
  <line x1="752" y1="400" x2="1160" y2="400" stroke="#e2e8f0" stroke-width="1"/>
  <line x1="808" y1="374" x2="808" y2="584" stroke="#e2e8f0" stroke-width="1"/>

  <text x="770" y="420" font-size="11" fill="#1e293b">1</text>
  <text x="814" y="420" font-size="11" fill="#3b82f6" font-family="Consolas, monospace">2026-04-22 14:30:00</text>
  <text x="770" y="440" font-size="11" fill="#1e293b">2</text>
  <text x="814" y="440" font-size="11" fill="#3b82f6" font-family="Consolas, monospace">2026-04-22 14:35:00</text>
  <text x="770" y="460" font-size="11" fill="#1e293b">3</text>
  <text x="814" y="460" font-size="11" fill="#3b82f6" font-family="Consolas, monospace">2026-04-22 14:40:00</text>
  <text x="770" y="480" font-size="11" fill="#1e293b">4</text>
  <text x="814" y="480" font-size="11" fill="#3b82f6" font-family="Consolas, monospace">2026-04-22 14:45:00</text>
  <text x="770" y="500" font-size="11" fill="#1e293b">5</text>
  <text x="814" y="500" font-size="11" fill="#3b82f6" font-family="Consolas, monospace">2026-04-22 14:50:00</text>
  <text x="770" y="520" font-size="11" fill="#1e293b">6</text>
  <text x="814" y="520" font-size="11" fill="#3b82f6" font-family="Consolas, monospace">2026-04-22 14:55:00</text>
  <text x="770" y="540" font-size="11" fill="#1e293b">7</text>
  <text x="814" y="540" font-size="11" fill="#3b82f6" font-family="Consolas, monospace">2026-04-22 15:00:00</text>
  <text x="770" y="560" font-size="11" fill="#94a3b8">...</text>
  <text x="814" y="560" font-size="11" fill="#94a3b8">共10条</text>

  <!-- 常用预设区域 -->
  <text x="752" y="608" font-size="13" fill="#1e293b" font-weight="600">常用预设</text>

  <rect x="752" y="620" width="92" height="30" rx="6" fill="#ffffff" stroke="#3b82f6" stroke-width="1"/>
  <text x="768" y="640" font-size="11" fill="#3b82f6">每分钟</text>

  <rect x="854" y="620" width="92" height="30" rx="6" fill="#ffffff" stroke="#3b82f6" stroke-width="1"/>
  <text x="870" y="640" font-size="11" fill="#3b82f6">每小时</text>

  <rect x="956" y="620" width="100" height="30" rx="6" fill="#ffffff" stroke="#3b82f6" stroke-width="1"/>
  <text x="968" y="640" font-size="11" fill="#3b82f6">每天0点</text>

  <rect x="1066" y="620" width="92" height="30" rx="6" fill="#ffffff" stroke="#3b82f6" stroke-width="1"/>
  <text x="1078" y="640" font-size="11" fill="#3b82f6">每周一</text>

  <!-- 预设表达式说明 -->
  <text x="752" y="670" font-size="10" fill="#94a3b8">每分钟: 0 * * * * ? *</text>
  <text x="900" y="670" font-size="10" fill="#94a3b8">每小时: 0 0 * * * ? *</text>
  <text x="752" y="688" font-size="10" fill="#94a3b8">每天0点: 0 0 0 * * ? *</text>
  <text x="900" y="688" font-size="10" fill="#94a3b8">每周一: 0 0 0 ? * 1 *</text>
</svg>
